<mxfile host="app.diagrams.net" modified="2024-05-17T15:22:02.982Z" agent="Mozilla/5.0 (X11; Linux x86_64) AppleWebKit/537.36 (KHTML, like Gecko) Chrome/124.0.0.0 Safari/537.36" etag="RW7jINCxAVDuqwir_2DC" version="24.4.4" type="device">
  <diagram name="Page-1" id="3MrF0ZG4h46_inigueoE">
    <mxGraphModel dx="2209" dy="1273" grid="1" gridSize="10" guides="1" tooltips="1" connect="1" arrows="1" fold="1" page="1" pageScale="1" pageWidth="850" pageHeight="1100" math="0" shadow="0">
      <root>
        <mxCell id="0" />
        <mxCell id="1" parent="0" />
        <mxCell id="NtP8fsEx1HXD2qbhHAHE-1" value="Dependency Inversion without Beans" style="text;html=1;align=center;verticalAlign=middle;whiteSpace=wrap;rounded=0;" vertex="1" parent="1">
          <mxGeometry x="130" y="50" width="220" as="geometry" />
        </mxCell>
        <mxCell id="NtP8fsEx1HXD2qbhHAHE-2" value="" style="shape=image;verticalLabelPosition=bottom;labelBackgroundColor=default;verticalAlign=top;aspect=fixed;imageAspect=0;image=data:image/png,iVBORw0KGgoAAAANSUhEUgAABREAAADnCAYAAACJ8RG8AAAABHNCSVQICAgIfAhkiAAAABl0RVh0U29mdHdhcmUAZ25vbWUtc2NyZWVuc2hvdO8Dvz4AAAAqdEVYdENyZWF0aW9uIFRpbWUARnJpIDE3IE1heSAyMDI0IDE2OjIxOjQ2IEJTVBY7j+EAACAASURBVHic7N13eBzHffj/9+7eHcqh9070ThAsYKdIUZSoakmWHNmSm2Q7jmPLNXFJHNv5xo6/TrMT+/tz4hZblq3IkS1bvZJiBVhBEARRid57O5Qru78/ABKFAIhDIyh+Xs+j59ERe7Ozs3Mzu5+dnVGysrIMhBBCCCGEEEIIIYQQYhbq9c6AEEIIIYQQQgghhBBidZMgohBCCCGEEEIIIYQQYk4SRBRCCCGEEEIIIYQQQsxJgohCCCGEEEIIIYQQQog5SRBRCCGEEEIIIYQQQggxJwkiCiGEEEIIIYQQQggh5iRBRCGEEEIIIYQQQgghxJwkiCiEEEIIIYQQQgghhJiTBBGFEEIIIYQQQgghhBBzkiCiEEIIIYQQQgghhBBiThJEFEIIIYQQQgghhBBCzEmCiEIIIYQQQgghhBBCiDlJEFEIIYQQQgghhBBCCDEn0/XOgBBCCCGWRkBqolvb91ZUL1NOhBBCCCGEEO82MhJRCCGEEEIIIYQQQggxJwkiCiGEEEIIIYQQQggh5iRBRCGEEEIIIYQQQgghxJwkiCiEEEIIIYQQQgghhJiTBBGFEEIIIYQQQgghhBBzkiCiEEIIIYQQQgghhBBiTqbrnQEhhFg5Ch5BSSSGDFJR0YrremfnRqOGkrHvVuK8Jj1/ctVz7pXjtOnTt41l3d07iNAm/skYruDUW2fpmb7tTcdESGoO3p0XaegewVihvZp9HMSHO7GaFDrqPWkaXqEdCyGEEEIIId4VJIi4TEJDNTb7QVWTi/KR652bG9/NVp431/GqxGRFsj9Gp+hEK6d7lyekogVks/0972NbdiSmsv/m326YIKKZwNTtZEa5aDybT13/dcy1EsiazbexOWBSENF5mobXZgoihpGy8zYyJ/UyRq9C+dtn6VmRzK5mFqJ2fpwH0h20X3iDN194jUu9y3heLXbufqyVT+8YxV8FdDP/83/X8KMqZfn2KYQQQgghhHjXkSDiMlA8NT662US2CsP+Bp8/q/OujwMto5utPG+64/WP4BufTmO7GQbXONn7kw6Glngf5ug7eOQTD5FotdNR8honDpdiX+J9LBu/bdz9xGMkmWA0ZojvP332uufd6D3AU999hrq54l7OMzz31U+M/b+Wyp1f+xJ5K5K7G8EINQee5rB9H5tz7ufRhBTe/NmPKWgaXYZ9GWTc28KXd9oxScxQAJi88PVwMWizr9go2CU1nn+bzc5NP6hZCCGEEGKF3TRBRNVX41u3mAhrdvCZQh3nHNv6rzHzbznq1MIxDF4+aud3vdfel+HQKesxSPGH8m7jut/wu0VR+eBtZm7DxffedlK21HcYC0j/hi7PBVjs8a5f78Hnogz+cNjOCwPLksUlZQwNcqrGzvo1OmcqhpY+YOqznnsef4hEz3aKfvtDXi5sn/n3r3gSnnsXu3ZsIj4yEIsxRE9jCcWHX6LgYsfM37kSHHvn2kG1hRpuoK6un7gYJ3XVLTiWYRdipekM1B7nndqTnFv3QR77wHZuf/xRen7wS8oHl7jRVZysS3dgUkDv8uUf/zWMN1rVd2HwRcEvMY/c6CEqCi7Quup/KNcpv4qVxC27yQocpTr/ICVdN1hNULyJz9vN2mAndScOcL5juUdmX6/z5EdSXg5edQVcaJvrilUIIYQQYmXdNEFEd9gHdY7UG1dWnQkM0lhrdSMBl8GLx+28uByZuxndbOV5sx2vo5+f/vNRfrosiZuI2fMQ2f4uml7/CS8Vts/yCrOZyNs+z4f3J2K2NVJVXIBNCyE2fSt7P5pN7O+/x7Mn2q9P4MVRw9Ef/xVHr8e+xTJz0lv0NM+FRvGx/VvZt+cQVS9VL/Fr9gqO8RiEq9mb/LbrE0D09fMnKDScgb4eujs7lmUfmqcPfn5gXpbUl951ya/hYLC3H5tpiP6RG3AcouFgsKcfm8cofcMrU5NX8jyZrH54jPRj01XMVl88NQNQ8PDzgYEBRm/AUyaEEEKIdxcJIs5guMvFL7smPmflqO4FEYUQq4MphZz1YSi2Exw72jB7cMZ7A7v2JGLpyed/f/grygbGbk614F08/OSHSL3zLpIKf0Xlu30YrLgOnLQdfZXSnZ8ie/024l6rpmYpBx4ZGl39CgYGiq+TQAX6VjgQkb42l9y8bSjq2KO52qpy8g+9DYZERFaenfaSoxy43tlYMAedZcc4UHa987EMFE+isneQbe2kqqQeXDq65s+addmkx2g0HD/ERVmVSgghhBDX2aoJIl553bjFwXfaVB5JUUmzKrjsBhcbnDxTodMx6dpJCzDxjzs1POsdfOn81NeTs3Is/HUcvDLD68c6EBxu4v3pKpk+CsYs6btt/DXd272m/nPJeTv/XGfMOu9QaJjGA0ka2QEKvioM2HSKG138sVqnc5HXiopZYXe6iX0RKpEeoAFDIwblTU6eq9RpGi80xUPjS/tMrFUnf1vja/dqU9K76lhUhewEjbtiVBKsCp5Ar02nqM7F83U6/cYi0l9N5ako7Ntq4YPBBi8ctvOH/ql/Vn00vrnbRHS3ky8XuOielLnoKBMPJqqk+yl4YdDdb3Cy2smLzcbU13YXcryqwvpUEw/GqkRbYHBQ51CZk7oFHuZEut488dUtPOlq5IetAXwkzxtXYwvf/W0nqQ+n8aFkM70VDfzdz2o4NTjpeyZPtt0Wz+Nbg8gO98AbFx2tfRw+XMv/O9xH9+Ty1wL42j+u57GgyZO06eQ/fZw/P3T1PF1qdDzP/l0isadLeOJiAH91TxjrgjUcfTbyj9XwL690XqnPkykhicT4gKPkPDVzvCetBkYSbAFbYQGVAxMZdXXlc+xACs6YPhRPBewG+Ozisa9/mKQpredePvK9vZM+O6n+/Vd5Or9vPCNBbP7Ud7gzrpSXfniIgP0PkpsUjpcyRE/taY699DxFzZMyOP6a9JQFTKanOfk4I+7hE1+4n8Cin/FURQq379tETKAnroEmqk+9yJtvFXHVuh1qIEl738eeLVlE+JkY6Sjj3GvP0ZLzNR5e18bb//pdjrWv4htWLYjEXfeybWMW0SH+WBhloKOayoKXOVRQhW1y1t0tf3C/fLzj2bD/fvKykwjx9UTDyUh/M3WFb3DgrVN0zDWEaKSUimo7a7MSiQlRqWld2nLv6dMw0FH9XAQqULukqc/N189/SgARID45jab6Wuqrq9xIScXTP5ggfx+8zAYjfR20ddpmmZpEQfMKJCzUHy/NyXB/N53dNhwznQKTF0Ehofh7a7hGBunt6qR/2rmy+EcQarXT3dKN3TOI8NAAPFU7tr4uOnuGpzycsPhHEOrjoKeli6EpddCLoKggLIMdtPbN/TRCs4YQEeCBa7CDtr7L7aGCyTuQ0BA/vMwqrpF+Otu6sDndD8TOmsd57EPxDCQi2BtnbysdtumNigX/8FB8GKC9rX/S1Avu5P3a53mm/Ltzjq7kyuJHaFgQPh4qzsFOWtv7cXmHEhEAfa0dDF71paWtV1cxRqg/fZiR+FTScjfiZ1IhZwsBnbWUHL1EU98qbo+FEEIIcdNYNUHEyzRfEx+16hTXODmqK8RHadyWYibG7OCbxTrDi92Bt8Zf5Cj0tem80wVxYRobliR9g6omFxbL2CeLj8qWoLlnsQ9fY+Zv16r4uQzK2l2ccyqEB6vszFDJDnDy7TMuOhc6UENRuHWjhQ+HQGu7i9d6DeyKQmiQypZkMyk+Tr5xeizgZbgMihtcdCtj30uOVInC4HyLzuSFcpsnz9WlKGzJNfPJaIXBPp3TdTpDCkQGq+xeaybZ08E/lOnYWWD6q6k8DYOzLTqPhKhsiFT4U78x5YYkPEIjVoXyFp2eSenHJJn5mwwVD7tBcbOLHhQSQlXu2WAh2cvOP18yJt0YuX+82VlmnoxXcNh0TtYZDKgK69eaSF70j2SMKSaQNccq+GxRCF/5eCzfftKbZ54u4TOnYvn2B+P5P3d3857f9Y3dKCoe3PnERr63yUxPfRdvHW6nHzMJaSE8/Oh6cgMLeez5vonAqWGn6GQLXj5jHz0igrkr+dovi5li4vibkEHeebmc37o8yNsVx/vvXUuq9RyPPNPD4LTtVb9gfFWDga7OOecSNAZ7GdQhMDQSH6V00kgtJ42Hf0Hj5I0drVSdOkq/Bih+xOSsJZQWKs9XM1GFXXS0zxAoUIJYd9/d9Ne8w5uFo3hGrmfzzlt5zyd8cf7bTykZGE/A6KOx8Bhm61gdMIdmk5Xgc83yUSPv4M7gRirefppTzgDWbL2TTfs+RbjXv/PTP5YysWyHB7F3fY7374nC6K+m7EQ1g1oYKQ8+Tmy/OsceVgklgKwPfJUH1/ky1FRMaUE7I4oPwUnr2PDgF4kN+Fd+8cqlq8/5fMvf3fJRQtn0wS9wV4pKV9kJ8ht6cCpeBCZsImvPx4kN0/jJL/OvPFi5mp3erh501R9/PxWWOIg4NKJgAKrVhd8KL64SGBI2JYB4WVBI2PyDiJova9bnkRVpRdUdOHUNs0lhtLOcU6cr6ZlyohU8I9Zyy9o1WBUdVBUFg5H2Ek6cqqFfn9jOEpLCxvUphHiqGPrYtjj6aSo9R3Fd33j7rGCNzmT9mj5K1DgS1sXizeV0XdgazpFf1MywMWnbhEGK2qcF6NQgEnPX4197nLa+7lkfhGm+8Wzcmk3waDWnC5rGH6p5E5m1kXXxAZgVA5fLQNVUcPRRc/YEJe3uLMgzSx7nuQ/D8CE2Zx2BbWc4cHbqHK2KdwzZmzLxbjhBa5t76c7/PM+Uf3fOEYCKd3Q2eWvj8DODrhsoqkJGZxlFHWHkpimUHuxkcGjyWVrqejUL1yi2wQFsI+H4+2kouoOhwUEGRxw35iI4QgghhHjXWXVBRJNF55VDTs6M338XNOoM7rTwcKxGXoXO4UUuXunpC8eP2HnTNvZZMek8tsvMvsWmbxgUlDopGP/ov8ZM3lxBIE3lvjQVP4fOr446ODieH1SFO7ZYeDRCY3+gi990Lyw7iqfK1mAY7XDy3ZMuroxdUhTK1pnYa1VIMEO3HXDqvH5+/ApYUflgiEokOq8Uzb7wiWJSiMDgdKWT35ZPCgaqCg/stPBAvEbuJZ2TjoWlv9rKs6dVpzJTJT1CJbLCRePlfCsKuREKqkvnZOvEiEHFrHJ/iorXsIv/OOqkcLxeKRaVx3eZuSXFxMZ6Bycu34G5ebyKh8b+WAUGXXz/iJOy8bsSk1Xj87uWJghk2Hp4Ib+XIn2Yl2pj+Gs6eeZ8P21qE+/cE8Yj8X6EKX00GaB4WYmnjzdfbeV7f+yk43JBmHz4y6/l8albY9n9Wh+vXw5w6kO88vsyXhn/GLI7l9uTA66ZJ4uPjf/+l1LeHo8WvnVuAOMb63lsRyy3vtjDi9OjiCYNDXA65p4N3+g/w+mie4jf8F4efcyLI/mF1NS1zDxSZrSSE7+vHPt/LZU7U7IJoYzjz81jYRU1kKHT3+QPp3vH6krhCS4NfZlP3bOejTmBXDw2HlzQ27jw8lNcAEDBZ9sXyEhIuUbiYLK2kP/jX1E2fvNbWtKA8cUvsSXvNtLeKOP85Ztirxy2bItC7T/J73/wcy6OB8+08Dt47LMPX3M/151nJMFUU3qwgNdfPTcRvDXFsPvJr7N7+z5SDlzi4vTRp/MtfzfLR/HPISvJC0fZUzz1i6MT+VEPUvu+j7MxZA1RXgX0D80eBhiro35oS9Ar+0UOk+gPCmCyjnDfFgcqYG/0oG6FBzMN9l89cnauf7+agk/8OrIjNNovHKGothe7oWGNzGTT+jRyUzo5dLFnYp5HJYjEpE4unXqb2s4hdHMAMdkbWBudQWZcKydqhzEAxbqGDZtS8R+q59ypCpr7RlE8g4jLWkfG2jz0kUMUtU1qN7QwUpM7qSx4i7ruEfAMJnHdBtJisklraefcEix+ofrEsWFrFsH2Gk6fKKXDPn78CbnkxvswVH+OgvImekcNTD6RZOWtJyEnlbaDxXQuaiJNN/Yx2kpTRxZhYVGEmltodkyk4R0ZRYAyTG1j1/iDNnfy7uZ5nsk8z5Hqn8ymdXF49ddwuqiC1gEHqmcw8WtzyUkyozDDimTLVa+m7MOT6A27yA1z0FJRSm1MOl5N5QyFZ7Dj1ngqC45R0SujEYUQQghxfa26IKKzR6dk8gAew6Cqx8DwV4i1AosMIurdOsdsE58Np87ZToN9a5Ym/fnSfFQSLWBrdHF0Un7QDY5UOUlyqNi0sZvABT19Vsa+qxjTvm8YHD3nWPQiDYZD509nxy5mVQ38TAqXQ16dQ4CvQpgHrNRSsstdnsaIzsluyAzW2ODjonH8HkPxUtnoD44uncJJAQvVTyXZBB31Oucn1SnDrnO4xWBXokKqH5zoYkFUq0KUCv2dOlWT7l2dNhf53SayQxeW7hSuyyMlDRxOMLg8bYCOwwWKScU8XqDGUDf/+ZOxCK1qMRHkqaIqAE6aOnWI9iLOX2HSUJAFcVR3UTA5UDjaT36Vk8e2ehEfpMBVK9vOc9iVMUDpH/6dl/Qn2Lfxft6bez+GY4COmmJKCt7gZHHz0kxor9dTXdk3qQ7q9NZWM2AkEBgagsLsI5Tmw1VfTPXkQJW9mpraYbZsCCU4UIHxv6khsYRZYPh8AeUDE9u72o9TVP0A8amLyMRKGC7l8NOlAChmb6ye5vEzPURvlwMiQgjyU2Fk2g33PMvf7fJRx9o/BX3q+dO7KHr2exS5cWiLHyhokH13C9/b4bqSlmE3UXwkgJ//MYDaFY5BdHe2U1tVTnxy2qR/66Cmcr6T2in4+PuiOFuor+vFbgC4sLWUcGq4CcXWOy2w5KK97BxVHeOdj72X+gsVhIevJzQkCK22CScaIYnJhBitFJ44T9PlNnq4i+qzhXjs3kFCQhTl7XVMrD3ioqO8iOqu8QuU4U6qiquJ2JNOSKg/SlvXon67qjWWDVvXEmqv43TBxUmvvxvYGoo4NeSJra3rShPqHGyhojaemKxggn0UOhc10aU7+3DQ1tiGIyKcqDAzzU3j5axYiYzyR7FdounKvH3upOvueZ7JfM6RibCkBPyMTorPXKRlPFOukS4uFRZj3bOZNTNeGS9XvZp8GkbprC3hZGkrHcO+pMeq6EPNlBxvoykyEGe/BBCFEEIIcf2tuiCiy8VVr3o4L895o121uducDoPpLxnaXWOBpaVIf9408ABGHFx1YTzc4eLHHYtbn9MY1inqh5RwE9/aqVLRb9A+ZNA2aFDbrdO0BAtE+AVrPJqpsSlAuXrVQp3xINIKWebyBINzzTr2UJUNEQovDRhj82tGqCSoUNqsM3lcjWIGLwX6HVfPZzjsAENRsC5iqUdFG1spcsR1dVB0aIUCt9NyRFBqLF95Xxz71ljwmH7uXWPB5sVyjLquikvbHQYGCubFpj/aSOGz/8CF1+NJTMskISWDpNSt3PqhTWQe/f/49QsXmWMg2fwYDuzTDsAYbKCqpAhT29AiEwfX6OhVc385HU4MNLTJ5WOyYMbAPjoy7SHDCCNDS7mqx3JRsCbdwf57byc9xh/TVfVNRZlpQO58y9/N8jF6L1LZ5CQu/VE+/uRGGprb6O5qp7ujhZbaS3QMXt8yVSxOMnJsbD3jS2GPacVXZ85/5y2a6msJCgljsL+PmsoyXK75tskGtgEbRlQEKZmxOKpb6BlyYqAz1DvD0HKjn+6eaSfZMcDAsEGYxYJZASd+hIZ64uxoos2uoChTv9/ZOUpSdBABSh2txsS/d3VP7TiN4QEGXOBjMS/8gR8KqjWG3I05hDnrOXOihPZpTywMh43O1omnY4pmwdPLh2A/DxRMWMwTaQUkrCMxcHrlN+ivK6aqa/Z6OP99gLOjkZbRaKKjwrE0NWIHFJ9Iovygv7JpysI980/XzfM840HM4xwp/oQEmdG7mq4EECcOrJPm9lHiYmdOe1nq1dSdMNrVTAeAoqIoBoqigmGnt7ltpi8IIYQQQqy4VRdEvGksd4DNMHj1tANThsbWYJW8wImTbbgMzpQ4+M86Y8EDBTVfjc9uNpGk6xwscVI8OBH8TU4yc3/QEhyDO1YgYNnXplPuUsmKUAmvctGCQm6EiubSOdk2PViorESWVg0tKpZ/fzKZdY4+fvdsJUfbnFfmE8vZn8Wnrv0m7vJwe/VXA0dvDeUnaig/8TJ4xrPz8S9w647H2Fn0Td6oXfpgkNGZzyu/yl/ydOd0g1dONfwO/uyJh4hxVHPmhWep6hgeD4xpRO/5c3YnzD+tGcvf3fLRm8n/9Y8x3XM3WYkpZMSuRbscQXB0UvrCj3g+v2nuudDGd7r4BYsVjv88kV0/H/tk9hnhkb9s4pPpwzzyoR6OfTWUc4t9puJ2lhS6Otrp7+3BcY2pBa5mMFBzntKAjaQn5LIjIQeHrY+uzjaa6+tp7h2d1vbq6FdFSXX0yQWreuHlqWCO3sRd0bPsVrdgMcHEU8dZ0tUX2dorgaRtCcHDojDS2jPz4huKGb+INayJiSAkwBdvTxMqoLt0lCmPRRXMXr74+mnTcqTjtFwjj/PeB+DqoqllmLjYKMI9GmkYVfCJjMKXXsqaBqeej3mn6+55nsk8zpHqgacFHMPDM1z/GIwMjcyyn+WqV7Mweig9+No1NhJCCCGEWHk3dBDxhp5kegUy7xrW+eNZnT8CmqYQZFWI9Fe5M11jY6aJHW0O3pljxdq5xMdoJJqgsNDJrxunBtBMs108L6cVKE9jVOdkF6wNUVnv7aLVpbIxEEY7dIqueg1+9hWk330UsrZFkePh5OBvzvOdgskTwKuYt1zHknA6cALmyyvWuGukloKDZ9iSuIOE1AjU2sYVH8W1LHQdHVCvGq6noJlW+8IqKpGbdhFtGaH8Dz/ilTNTlghHW78EEbIFlI/eU8yhp4s5BKgWX/yDwwiOWcfWu/aTce/DXCr5D87OurKKgtnDgoId5xLHqR2DHhRUmPlE+iiq1YXvCgWQLR4eJKVlEhkTR3BoOCbzxFA2Xdfp7e6ktbGBqvKL2Ab650gJcPZSfeoAjb4hhIUGExQcTGh0GhFx8USfP86pept77a1hYBgGjs5LXGwcnPm7xgjdSxlsVWaJTSsaencpRUMxZCesZWPyAPmVfZNGFJsISt/O1mQfnL2tNNU20jdgw2YbwOaXze3rAyclptNx8QiHLrqbOXf2Mbaf7qZmhuLjiQr3oKHBg6hIH4zuEpqnDNd2M92lPs8zMXR0A1RNnXH0qKZpKAtt5a9HvRJCCCGEWGGrLohoMit4MPWVZg/T2MW3fdKFl+EyGDUg0Dx2EJO3t5oVMAyGZ7gZM5kVLNO2t2hXp7/sXGPTL/qbQR37eIV3qIkn4hWa6hz8sX2B8TEVAiwKutOg3wkul0FHv0FHv06vt8q3UhQSfFlwENHPU0E1DNptV4/A81lgvGZRlrs8ATAoatYZDVPZEK6Q71RJVuFii870W2DDMTb9n5dZQZm2Ry8zKIaBbRGvHRuusekmPbSrb0y9F/Ga9MIoBPtbUA0HDe3OaaNQNAJ8rl9QSu/tpE9XCAuLwEOpnmVKRpWIO/6Wx2/158JTX+PF0qknxtDH6oxmWnXN5YIZ/V0MGArR0XH4KxUTq4qb1hATveIVyE0qPn5+qMYAPZ3TliJXPPGyLv48uV0+Jm98rBaM0QFsIy50+wA9LQP0tNQwGJTDx/fFERWhcbZ/lgih4kVwWACK3kTPMiyc4O87Nj+iMWCaWARrGVl9/bjjPQ/h6eU9499VVSUoJIygkDDS1uZy6PWXaGtunHHbCQb2gQ4aBzporAbFI4KcnZuITV5DQMPFiXM0H4YN2xBoxhDtDQ0ssBucOWndAMyYzQo4JjKleHjiMdMX9E4qiqqpd7Sh+OxkbepGsvuPUdQ2/mRKDSIuzhc6SzhaUDNlSgVzwBK1rQvYh9HbRNNAIklR4Xj1exPpo9N5vmVqG7ugvC/heZ4x+UH6Bw2iAoLwVdqnvHqN4kFAoDcK8130Z3ray1evhBBCCCFWi1U35EQJVNnhM+mzWWVTiAK6QcOkBTN0m8GlUfAI1dhhnfh3k4/G7tCxUWOVM0wxpgWpbJ+0vWJW2Rh6dfqTjTjHgghBnos6tClcgzrVdrCGa+yclB9UhV3JGpvCFbycCw94aQEmvr7PwndyVKzT/hbkNXbiZwqygoHdNbb6su8cc8x1DhnoikJG2FhQ9jKvQI09c77KPL/03bXc5XnZQJtOqRPiw1U2h6mYnTO9ygx6/9iCJ6GRKmsn3TkqFpVbIhQUp0H5NQbfzEW3GTTr4BuqkjoppmGyamxb6VfJMWjqHEFXPNic7TPlRtknPoaHk6/fu7NGdyX1PQbmxA2k+MyWD53uhgZGTX5k3HIr4ZMrtCmC9btysWKjua716vEphh2HAxQP30XNcbnSjJ7zlNSMosXfx3sf2ElCVCShcevY9v73kW5Z7cNkdHq7utCVIOLToic9CVPwiN3LhoTFNyzulo8aey9P/O0/8RcPrcNrcjVTPPELsKIYo4zOtTKPTw4ZCWaMnkrqu5c6iGgQ7D8WRHT1ayx58jOIiI6ZNYA4naZpxCYkzb6BYiU6axNbMsOnzL1r2HvpGzZA09DcbWKMAVpbByA4noTAaUFnxZf43E3kJAbj/vMwg+HhYQzVj/Bw70kPeCyEJq3Bf8YrLmPsFXbDRl3hOeqHvYjNzSXeevnbKqoK+ujw1MWdFC8iI4OWaGaCBezDGKCpqR8lKJa0xCisrnYaW6cPyXcj3eU4zzPm20ZLUw+6TzyZiX5T2g/PiHSSQxbRfixbvRJCCCGEWD1W3dCakX7I22ohs12nVYeEcI00b2ivdXFq8vWprvNquc6mdSof3GlhXZtOl6KQFq4SZTI4c8FF+Qw3Sw4bbNtmIatdp02H+DCNdOsM6U/S0KrTnqCxJdeCd5vOlYEihsGBYhe1Bmh+Gh9ImAioWXwU02vd5QAAIABJREFUVCAqxsTjAcaV7QtKXVx0AC6dF8t1ctaqfOQWC1vadVqdCuHBKhlW6Gtx8XrPwsvR1atzYlDjnigzf2dxUdw/NnLNz28sKOvod1Ew08N2w6C4w+CuBJUPbTeT22dcGdVXVePk8Hjgq7Hexfl4E7kpFr7h5+L8AHh4K+SGQFMfMP3tJzfTX23leSX7dp1TnZAbqnG3C0Y6dc7PMLeR4dD5U4VOVqbGk7eoFLXr9KKQGKYS7wFlF52cnTTgzd3jNUZdvNagkRWv8bldCmfbDQZUhfQwGB4E/Bd/rPNnUHWsgSN70tl9Ty7PxLRzpNmJV4g/uzPgUr0LpsUItJhIvrzX/0rAxSPCigmFpK0p/H38eI1wDfHyH+o5sZj1Rlw1FJ1uYPP+bHbdlkb5n8pmXGXZXv4yb5dk8Z6sh/nYV/K4VFnPoGElNCmb2EAzQ2W/4XDpDONK9GYulXexfcdG7vqLvySl2TYWaDRGaTj6O861LCxio0bu5I6dSWOrXwPm0EhUVEI3vI/7YscrjquVC6+8Qc1CVrw2Ojjzu6cIf/xDrN/+ET60AzAc9Jx/ltM1D7Mve0HZXiE67afeomr7R0jd90U+FnWKqtYRLMFJpCRDR9MorFnkLtwsH73hNBfab2Vn7uM84Z1DVcsATsxYI7PISPXH1fwSF5pmCc4qXiTcdhfJHi5a3jlO81LHcBUXQX7jI5aHNAavtf0SaG9ppuDQ2/Pevr+vd/Y/Gnac5kBCY4LYRClVLf04VC8Co1NIC4KhmmZ63P6ZGfRVX6Q+ajNJW3fidekSzd02HJoPofEpJIWa6S2tuMYcljOztzXR4QghPHMbW3zqaLeBNSyOCHWIAd376kXIpn6ZkjMV+G1PI3NTOv3HSul29tDW4SAqMpP1yQo1ncPg4UtIXDJxAUs0rFRfyD4MbM1N9KZlERttMNpYQvv00fXupLss53mWfNcWUxq2jazMneyJ7KBzwInZJ5BgnxGamweIi1x42stVr4QQQgghVotVF0RUhl38rFrl/ekqe30UDLvB2Uonz1ToTHtxjY4GB99xaLw3SSM7SiMbg84+F3+odPFK+8xz0uk2Fz+rVHkkTeU2HwV9jvQvs3c7+cE5eCxVJSNaw3x5biNdp/jCWBBR8VLYHqddNeovMEhl9+WRYbpOfeV40Atoq3PwDyMaDyZpZIdppKowOKRztNTFH6t1uhZzf6Dr/KHAwVCGxq5Qjb0hoAGjowbVDU7+VOaidpYL8rIyB79UTdwXpbLDf+J1WVPrRJDPGHbxX/nwUIbG5hCNO8Ogu8/FgbMummMs5MwWRJxn+quuPK8Ye6V5JEIlQIMzzfqsN+WN1Q6+M2LigUSVzGgNLwy6+3VeLnHyQrMx5UZiIcdbUuLghw4TD8aqbF4DtkGdw8VO6qItpK1oEBH0rha++n148r1x7M+M4qPZLlrqO/ndT6up3pbHrulBxKBA7tsZgd+0kSVhyeG8N3n8g7OHslcaOLGoJZF12o/+jpO5n2fb9o/zvoGf8PzBCmzT677eQdGvv0PftnvYlreWuHU78FDs2DqrKXrlDQ4fucDMb5naqX31x7xk/gC7ctaSE20aW5HTGEIreW7BQUQlMJWczdvwnFY+vglbWH950RBXOa1vv0HNbA3XNejdp3jp+xc4GpNAmK+J0e5aGluGSP3g+xaW4Aoyeo7z/E8Mbr37DjJTdrEtfZS+pmLO/OZ5Ojf9HSmLDSLiZvk4q3nnpz9k9K67WZe2iU2pFjTDhX2wnaZT/8vhV9+mZabIgWIlZs8neHB7OHrrG7x5pGkZ5txUGB1vM0ypvXzqNpVDrRpN1V7UL35B8BkN9PUyMFdg0C0O2i6c4Ly+ltT4XLaOtyWGc4jO6rMUl3VdtSL5/JLt4EL+SUays0hKySV6fJSgPtJN44UzXKztX9C5MEYaOX/GSm5OAiHx6YQaTgbbKjlbNEzC3uBrPt9x9VVxttifHblJbMjp42hhM83FZ/E1rSMpYxORAIYTW1sFheWBbFk7R2c7b6ML2ocx3ExjVzpBIQ5aGztnCI65k+4yneeZ6APUnDzCQFw80SEB+AV44RpspaS4it7wrcQuOIjIstUrIYQQQojVQsnKyloV6z+ovhrfusVEWLODzxTq8qRWCLFk1KA87vvER1kXYmKo+SyFB/7EO0WtS3dT+q7hQdaHv89DWfW8+U/fI3965F1L5c6vfYnNXk1cPFXBgAG46jn3ynHapt8Zq7Gsu3sHERqgBLAmbwPhwwd56rvPUHfDFvw1ymfeTASvvYdbbt1FZqwfekc+L/zsV5QswbvGAamJV/1b2PYWfvGxQQIuB6V1M//zf9fwoyqF3orqRe9zpSiaB17eHphxMmwbwr5E0RjF7IXVy4ziHGFo2I5rSa6KFDSLBc1lx74kCSqYPLyxeplwjdiwjTgXOD2HQmDmrexIGKTojZM0OKb+zb19WIjJ20uubwPH3ymZ41V599JdrvN8bQr+6bvZlTTKhbcLqB1Z3HlbnnolhBBCCHF9rbqRiEIIsdT07lP86d9bqN73XnZv28iWjec5JkHEqyi+2aTFmzBG2uiadSVhwCOWzJ2xY//vPE3DazMFEcNI2XkbmZN6GWOBoyZXi3mXzzVZiM7bT3Z4D1WHfsGBt07QtsiAxVza88P5HGY+eccAOVFOrKtuNuT5MVyjDA3MMu/IYtJ1DDPoWOrKaeCyjy5hG2PgHLXRt+jDN+Nt9QBXD46rMufePlS/NSSEaQxUNVzjVWP30l2u83yZ6hVGcmowfeVlU393qi/hYVawdzFoX/zvcXnqlRBCCCHE9SUjEYUQNxdzABEh0N7Se3O/Vqb4kHjrA2SNLySgaFZCk7OJ9tNpfuOf+O8362/uIOuylo+Gb2QUdDYy4FjaLnimkYhzuZFGIorFUazRZGYlExvmi6vpNIcKW5lhSt9rMoUkkxXjj29oBAG0cObwWVqWL+a35MwhWezYnIDV3k1DbQMdg040Tz9C4+KJ9lPouniUgurBRS/EJoQQQgjxbiQjEYUQNxdHL60t1zsTq4EXYZk7WB9vAgwMl52hrksU/ulPvH3sJg8gAstbPi4GWhqWJptCzJeHL4FWg56685SVLSyACAo+gaEEB3lg762hsKz8hgogAjg6Szh2fJCMjCSi0nJZowKGk5GBbmqKSqlokACiEEIIIcRsVs1IRCGEEEIsjoxEFMINqgmLWcFld8ichUIIIYQQ8yAjEYUQQgghxM1Hd2K/wUZSCiGEEEJcTzfo9OpCCCGEEEIIIYQQQoiVIkFEIYQQQgghhBBCCCHEnCSIKIQQQgghhBBCCCGEmNN1mRNx7XvupPiF167HroUQQoh3LVkoRQghhBBCCLFcZCSiEEIIIYQQQgghhBBiThJEFEIIIYQQQgghhBBCzEmCiEIIIYQQQgghhBBCiDlJEFEIIYQQQgghhBBCCDEnCSIKIYQQQgghhBBCCCHmJEFEIYQQQgghhBBCCCHEnCSIKIQQQgghxKIoeAQlk5EagXa9syKEEEKIm4yJkNQNxAV5oizznrSwsLBvLfM+rhKelkx7edVK71bMm5nA1F1sXBuL2t1E36hxvTPkphs9/0IIsVSkPVxaN3p53uj5X520gGx2/tmnefi9d5LlXcvJwkac1ztT8yL1QQixVG709uRGz78QniTf/1Xe/8BeMiI1euqq6RlZnnpsWpZUxY3Nbxt3P/EYSSYYjRni+0+fxX698+SOGz3/QgixVKQ9XFo3enne6PlfhczRd/DIJx4i0Wqno+Q1ThwuvXHKVOqDEGKp3OjtyY2efyEYoebA0xy272Nzzv08mpDCmz/7MQVNo0u+JwkiLgOP3L/g849txIMRyn77FX5XOLSCe1fw2fYFPvdQxtTXafQ2jv/oG7xVr187ieEG6ur6iYtxUlfdgmO5sjofWip3fu1L5PEOT333Gepc8/jOqsm/mcDMO9i9eyuJMSF4aw5sHTVUnnyFd46VMziPU7HkFlKeN1N+lpWKV2gyyQmxBPt5Y1FdjNp66WyqoKquk+vywFMJIWP3dmKp4fShYrqv90PX1ZYfdyiehOfexa4dm4iPDMRiDNHTWELx4ZcouNhx/UYlrZr2cIz0j0vohu4f3yV81nPP4w+R6NlO0W9/yMuF7dN+6xpx93+Hj+wIBHo5/V9/y6uXxrYwpTzGZz6+E29UBo//Mz/6UxUrflmwDPVBCbuLj33pvURd+ZEZGK5RhnqaqDt/iKMHCmhdppERYi4m0j7wbzyS28HB73+HI60rWNtWY/+4Cq8/pX9cQtI/XsV/jZl/y1GnBn8Mg5eP2vld7/XKlVhaOgO1x3mn9iTn1n2Qxz6wndsff5SeH/yS8sGl7XcliLjkzMSkJGNxDjKMN7GpSZgKi1e0g3S0F3PuZNf4hJcKvvF5JIe4k0ANR3/8Vxxdnuwtv1WRf5WAvE/y+PtysDo6aSg/SZXdk6DELDa85wskRP0nv/jdOWxyHX2TUPCKzmNLdgQW3UZvZxOdThPeQWHEpG8j2PcUBcWt8sTzhmUm8rbP8+H9iZhtjVQVF2DTQohN38rej2YT+/vv8eyJ9pUPEMAqaQ8vk/7xurvR87+qmIjZ8xDZ/i6aXv8JLxW2M9t9quFqob03nOTMNaiXLqFjIiZ7LV6NVbREpeK7ovmeZNnqg4Gr4wLnKjrRAUX1xD8+m/RbHyc5JZyn//OPNC79wAixKq3i/nFVkf7xurvR838N9kGdI/XGlQUxAoM01lqva5bEsnHSW/Q0z4VG8bH9W9m35xBVL1XPeo2yEBJEXGpaHIlJvuiNb3GOvWxNyiBKK6Z+xZ5wGYxeepOXL13+bCLxoWyS3OkExOKZUtm2fy0+9nLe+NF/UNA6/jzLHMeuT36ZWzc+yOaj5znYJJdNNwU1mPiUcDxcnZQXFFA7ON4gaP4k5u0iJSqTuLo2qvolqnxD8t7Arj2JWHry+d8f/oqygbHftRa8i4ef/BCpd95FUuGvqLzZo8TSP4p3E1MKOevDUGwnOHa0Yc6Lc0Xpp6FKYUNGDhEvX6JZSSAtw5fm08dxRF/HIOIyctYf4rXniybKRQ0g85Gv8dCGO9ibd4RfH+1CerybgPSP8yP9o1hmw10uftk18TkrR5Ug4ruak7ajr1K681Nkr99G3GvV1CzhUwkJIi4xJTSd+EDoOX+WMiWHLbekEx+mUt8yNVikRNzDJ75wP4FFP+WXFxO47fatrAnxQh9spubUC7zxZhG9roVv77bxYd+bAyYv2O2k+vdf5en8vlm+ZCYw43Zu2b2FpJgwvE0ObJ11XDrzGoeOlNA3vaJqQSTuupdtG7OIDvHHwigDHdVUFrzMoYIqbJeLyGcXj339wyRNqZ17+cj39s6et4XkX/EgdN3d7N6VR3xUIB6M0N9cTsmRFzh6rnnKqLCJ8v8ZT1WkcPu+TcQEeuIaaKL61Iu8+da08+UfR6SvgrPsGIWtkwbEOxooPF3JjpgkwqOs0DSw/PlZSHkCYCF47Z3s2b2FhKggLLqNnsZizh96mROlnZOejqoE7/g8H3sgHVfxz/nJr08wcPnOQPEn87G/46F1Fupf/C6/PtyCvuD8uEn1InhNGglRYfh5e2DCxaitm47GCqoaurFPuntRfFLZuiMD75bTnOwIJDUphkCrGWN0gK6mMsovtTKsL2J7zwD8LAquzjoaBydVFFcfTU1dJPgF4edrhv7JZ9mET2QqyWuiCPT1woSTkYFOWuvKqG4ZmHLDOpGfM5zqCiItKZoALxP6aD9djeWUV0/Kj2UNG/fkEjL5p0IiefsTJ33W6Sp5g9MNk4eKaFjDU0hKiCHY1wuTYWeor53m2nLqOoYmjSJQsMZtY2tGCHrbWY4XNU56VduDiHV7yIk00VN2mNO1AxgLzs/qoQZGEmwBW2EBlQMTJeHqyufYgRScMX0ongqXK53b7bkSxOZPfYc740p56YeHCNj/ILlJ4XgpQ/TUnubYS89T1Dwysb2b7aG77dv4QZO0933s2ZJFhJ+JkY4yzr32HC05X+PhdW28/a/f5Vj7tH5P+kfpHxfKvJ73fvNTZHa9yNMvDJGzfy9pccFYnH20lb/DW8+/Ru2VV3UU/HZ8iScfSOTSs3/N/5y2TaSjRrHzs99gb8hpfvf3P6PMMba916bP8IVHMml44V844XU7t2zOJNzXhL2nmosH/oc3TzZeNVJcCUkkxgccJeepGWFuipm+qvP05OWQEvEn2izrSfWt5VSljdTbZtp+nuWvBJH3yW9zV2I7h3/wf3inedpvKfxuPv7FBwiteYYf/ddB+g0WWJ/nez0wB72XsvzT9K6/neiEeExHuya9Luhu+m7+vuZbnmo42z/z99yqH+RgezLbciPRW47x2h+KCL/3g2yJ92Go+k1e/M1L1A4Z7m+/gONd0O9LCyHt9j9jd146oT4qw20XOfvqc7Qas4Vt3Sh/N/sjt/pHJYANH/8296b0cOxH3+LtaRE0JeJePvGF9xB86Tf8v58e4spzV+94Nuy/n7zsJEJ8PdFwMtLfTF3hGxx46xQdly9Clvt6eMH1QfpH6R8XJzRM44EkjewABV8VBmw6xY0u/lit07nY8SqqQnaCxl0xKglWBU+g16ZTVOfi+Tqd6eMfFLPC7nQT+yJUIj1AA4ZGDMqbnDxXqdPkXNz2y26+9Q3cvz4H96+f59u+zWSklIpqO2uzEokJUamZYxqLgAgTX1ynEY3BO0UOnm415nzQJ6szLykFv3XvYW+GJ5UHfk9hbwybNqRjac/nfP3w1C19Utm4LR2rGkJUrIPagoMUXbjEoHcqazffQpq1mqKyjiuBAne3n6ASmLmPnBgnjScPUt03S3VQTHj6WBjpaKC1qZ4uux+hgRZ6S9/i/IzvnKgEbf00Tzx6CzHWEVrKi6hp7IbgVNLW7SArvJPS841c+aYSQNajX+PPdiXh0VdB+YVi6pq60YPSycrbRbKpjPOVPWOBCMUDbx+DgZZ6Wpt7MYWEYXW1UFlYRH1TPa1N9bQ21dFYdYHGHucC828ibPfnefzhLYRpndReOE9dqw2vmByyNm0j1l7MhbqBKz+eyeUfEWWj6shbFJ6vZiQ4m5yNO0j1ukRRWefE+fJPJ29bOh6Nxzl6oW3Kj9DeeIKjb73KhWb7yuRnIeWJRsjOz/LEI9sJcdZScjKfivo+PNdsYeP2rYT3FVLaNDSeH4PhpipG4raRmZmOb9sJSttGAQXvrA/wZ/uTofo5nn2+mCFjoflxk+JJRM4trI8PQhvtor29nZ7+YQzvUCJi1hCidtLcNTxRnpZgYuJCsSje+Pu76G6oobmth1FLMJExawg399A8KVDm9vYeIcTGhWLub6CmbXBKfXD1N1JzqZKWgcm/XhXf+K1szorFRx2iu72VnkEHFv8IIqJiCXC10do7OmP+/XwddNReorG1B4d3OFHRcYSZemjuHM+PYsJiMRgZ6KN/YBTV6oPFGKCjpZWe/j76x//r626n90rkUcW6ZitbsuPw0XtobWyko28Uc0A0MXFx+I620NY/cTvo6O/GGRBLeGgonoONtI0HTi1h68hNCULpvkhhadvYhdaC8rPKqBGk71xLsKOOojM1E+0eOv11hZQWl9E1qRlyuz1XvIjOu43kAB2vsETU+qOcOnWWuh4PYnK2kbsulK6zZ+m43KS42R66276BB7F3/xWP7UvDam+gvPAcjf1WknZtJdzkh7/vIDX5R2mYMl+D9I/SPy6cErqBHTvT8bKp+MVqtJ07RvGFKga8k0jLXE9KQBOFF1rGb+ZNRObdT26Mjcp33px6Xk1JbLxrM6HdpzmSXznWJ6ESvv4+NsSrjHhEE24v52z+ccob7QSlrSctJwtL9WGqeqa2P1rUNnZvimWo9A1OVPbOcrGt4p9+G7mxDmrfOkB/+u0kjZ6jI/peNqn5vHHORNb2DCwNxzlZ3j2ehjvlP8KgJY1NGfF4D56j8FL/pHyoBG9+mD2pPtQf+i2nG8ZvZNyuD+5cD4BiTWHD9gy8W09xfNr1jxKQzea8RMxtpzl+vmW8j3Qvfbd/X+6Up+JD7OZbSY7wou/Es7x1ZpjYbfvYkONPy+u/5XC1lbSdt5KmlXKmohvD3e0XUp7u/r4ULxIf+ArvvyUJj8EqyoqKaR60krRrO6GKlQD/YWoLjlB/JejuZvm72x+51T+O0qvHsjEnmSBnGWfKuiY9oFQJ3/5+bkn2oPqtpzlz+RpaCWXT41/h7txgRmpOcu7cOaprGrF5xJO2YQdrIzq5UDReH5b7enhB9QGkf5T+cTH9Y/gaM1/foJHiAbXtOhd7wbCqbIjS2OwLp1sMZppdMyxcY4c/VNa7KJntQZiisGW9mSeTVLxGDM626JT1G+jeKpvjNNYqBsc6jUntj8LePAsfiVIY6nZxpEmnpNug36SwIUZjmy8UtBgML3T75eZOfQP320N3r5/dad9mpGOJ2Upugg+9JW9T0TX7fVROupl9AaBpCjGqzmvNxpz1UkYiLiXFmzWp8Wj2UmrrnTgpo8G+ncTUVLyO5TM0Q/trsrZy/F9+Qdn4Hy+cKWH4yW+yN+92Mt8spXDAWNT286a3ceHlp7gwdiD4bPsCGQkps29vyWbX/my8h4t55Yc/5kzneGNsimDLx/6GO7IfYGv8aV6/PG7WM5Jgqik9WMDrr57jyrWLKYbdT36d3dv3kXLgEhdHgNFKTvy+cuzvWip3pmQTQhnHn5tjYlx38++9nlv2peDRc4xn/+MpKsYzpPjkcO+TnyZ3372kn/oJJUPTy7+F/B//6kr5l5Y0YHzxS2zJu420N8o4P9NJno/lzM9CytNrPbvvSMej6xC//Y/fUj08vt9DZ7n7c59j4933kXL+F5Rf7nT0Ds7+4TlSPvdhsu57mJJL/025nsXe+7fiO3qRV597hyvt1kLy4y6TL1Z6aKtuoKyydWIknOpH0tbdJMclElrdTeu0GKVqGaD26FnaxuNhLc3tOLbuISU6iYiqDhrti9t+3syRJCYFYxqppzD/HB2XR7BZwsncuoXopDTCmk7ROm3W57H8FF7JT1t7P+zYzpqYRMKqOmh2AM4u6krG32dQQsgIDsNKB7UX5ljIxBxBcnIIpuEazhScp+vyfmubydy2jZjUNEJbz9J+uTwNG40lJYRuyyUiPYvW7rO0G+GkZMTg4eygtKRmYj7QheTHTVrmE3zp8W14KrNsYAxx/r+/xB8vLixobfSf4XTRPcRveC+PPubFkfxCaupasDnnPgC323M1kKHT3+QPp8cDFoUnuDT0ZT51z3o25gRy8dj4TYm77eGV/MyzffPKYcu2KNT+k/z+Bz/n4ng+tfA7eOyzD8+cuPSP0j8utH8EtOAIglRQXOUc/MULtIy3QRcu9OH7t39OZkIa4erZsTJQrASH+qDoZXRMG4KhBIyNinJ0tNB75U8eBIUFoeLEXvwbnjncMn7hXEiDHsmn708kMS0a9VLt1HnbTBoa4HTMZ/p9DZU6yi/2snntPWzxCqQ1v4g+bevURQzAzfI3GCg5Q/196cRnryPkrQauDGBQQ0jNjkV1VnCxZFKQ09364O71wGzUQDJ2bCRAcVJXUzdxc+Ju+u7+vhZQnw1bGUVnKmjUOznfeBt3cI5TF2voVw9RcVsem+LW4KtU0evu9sbCy3Pevy+fjWzNC4XOAzzzg/+hbvzuUgvdy/uffISrusGFnt959kfu9Y8Gw6XHKRvYyLqcbcS/UkHVlWBkDJnrolBHCim+OHjlG4p/DllJXjjKnuKpXxydaD/Vg9S+7+NsDFlDlFcB/St1PYyb9QGkfwTpHxfaP2oq96Wp+Dl0fnXUwcHLA+9VhTu2WHg0QmN/oIvfdC8secWkEIHB6Uonvy3XJ+qsqvDATgsPxGvkXtI5Od4NKp4qW4NhtMPJd0+6uDKWU1EoW2dir1UhwQzd9oVtv+zcqW+Tzff63M3rZ7fat1mMXaP4oV0j6lde76IqQCOKsbkzr3VlI0HEpWRKJinegqupjPphA6ikttlFanwGseZ8ymf4ATjrzlM9+cTr7TTU9WFERxIWosKAa1HbLxc1NJEoK4ycPURR56Qbb2cb5w68TsxwNCNmC1we5D9cyuGnSwFQzN5YPc3jFzJD9HY5ICKEID8VRlZmpJEamUKMh0HPyaNUTVqtyBgsofBCJ7m7EomLVCm5NLU8XfXFU8vfXk1N7TBbNoQSHKgwY09/I+YnKoVYT4PugmPUDk9KY7iMc+fb2LAnjcRojfJJ+TG6j/HKCzl84v1b2L//HLgeIjdwiEvPPc2ZRY+ld5Ojg0tFHQAomhmLpqIoAA6Gh3XwteLtocC0i1i9t43Oya2mYaO3dxTDzxcfqwp2fVHbz5fiG0yACYab6uic9N61Ye/g/2fvvsPjOs5D/3/PFvTeK9GIDgIEexVJiUWiCiXTkm3JTS2OEze5JPF1mp34+jq/xJZt5br+ZFuWJcuxrUY1khJJEewVAEH03ntvW865fwAkF8AC3F0UguT7eR4+EoDZs3NmZ96ZMztnTmPbENFxgQT66mjpmpyftmsTfADWLjq7zcRFeePlqYDZtfqg+IYQYICh+jq6bI9v7qChZYCYhBCC/XS02eRHG67nckkE65fFkJbcDGom0R5mOi/n0zCLyQRXaF3FnD8+gnHaFCYau2ZRR7V+iv/yI/apT7B95R4+snwPmrmf9upCik7u53Rhk92nbzsdz9U6qsp7bVYvqPTUVNGvJRAYGoJC1zSroRzjaDzRhcQS5gbDBScptbnwsLYdJ7/qQeJT7Bxc+kfpH11u9zr8wsJxw0LVicNXJxABMA8wbAKs1msTfLpwQkN0aH0tdE16CrA+NJJAnUpPa6vNLYhhhIbo0YbPc+ZUs8037xoDvT2oGmiqvbKf7lsJe0l16HRWmooKGNy2kPQ7AAAgAElEQVR0F+laJQeKOtDc9egmHcbZ8tf68rlc/QiJSbmkhr1N2/jtSkpgDmkxesyV5yibxX67rowHAAxLtnD3Q5ljn4vOg4D4ZSRFeGNpfJsPzl7bD9HZ4zvbvlyqz6plvD5ZsFoBrOP1wopVHRtX6G0/N0fTa66Xp+PxOYZQPQyWX5zw8Bpr+0kKaz5KUuqEw7qcH4f7I2f7x9FiLuZ3kLNpOTlp/0NFwdgaKl3MajJCFYYunKTCthx0CgqgoE7s/9RO8l/5PvnMjkvl40R9AKR/BOkfXewf9T46Et1gsMFKns3OHagaRyssJJl1DOrHeitX3kEzq7x+fqxsdXrwMyhXe76OIcBXIcwdrs44KWPvpWiT3k/TyLtonvrQGmfTzzdX65uD8dDp8fMcxrfrjVh62yz8+0HHF1PIJOIc0semE+ep0VlZNr4nXDe1Fa1ocakkxhoorZz6wagm05SlolaLBRR3jMapH7ez6eeNmwduaIwOD016oprGaPlbXPki6BoF76Sd7LpvB2kx/hgmZ9WqQ9FNfs38UTy8cFc0BoeHJwVVjdHhETQlFA87y5aso6NTyt9itqChRz9lOcHNnB9v3BWNfjN4+/pPuOUC8wgoAXbyo9F3/iXey0jkoTVP8hEMjBS/wFunO27A5ukKbkFJpKUmEe7vwZSqpSnjk4qTfm21TsmrqqqAAb2d+ulsekcpBiMGRWNoygoXDYvZAoo3RjvRW7NapjzhUFVVNJQpF6qu5GfUCm7u7rZ/QbFaQPG0kx+NkeYCSsICWRazkmxNh7n9Ipcbhha8PqgtJzj46on5fZPRBi688m9cei+exNQMEpLTSUpZx7ZPrSIj7//yuzcuTxkjOh3PNTOmSVVCG6inoigfQ6u9m1Wc43A8MbhhRMM0OjJp0DfCyJD9AYj0jyD9o6t0BIWFoWjtNDcOTPqTSl/NRUo6S7n6PYBnOMG+OtSqZiZ+NzA2GemOhc42m37JGEZwoILaVEvzhIt1Bb+gQHRY6e7onOXTY3XoFLDWnuJMURQJQyco6dIgcurA3uny13opyy/HnJxGakY4eS3NaCj4Z+QSpTNRk5+Pq4uMxvLjynhAQR+6jJWhNr9Se6g7/jv2v5dHk+32Ds4e38n25Wp9ni+ulafj7UsxGtErGiaTedL5mhgdnhpnXc2PU/2RU/2jhYazp2jfeC9LV+bgVXiCIU1PVPYKgpReLpy/POHWPa3nMuWNFpakPcpTX1xJfVMrXZ1tdLU301xTSfvA7DZUc7l8nCD9I0j/6CI9uAMjZqb0UcPtVn7aPvvJYb9gPY9m6FkVoEz9Ml5lwvWFNqyS3wfJ4Qb+dZOOsj6NtiGN1gGNmi6VxkkT4s6mn38u1jdH46GT4+f5jm+zIZOIc0ZHaHIavsogDZ1WAkLCALB2NjGirCQuOQpdZd0sB6GLiJP9jS58J488sZcYcxXn3niFivbhq3vhRG/9K7YkzEMeZ6Jc7xTsTzLNm0WZHz3Ru77FM7vs/F0bsZ8frYeys4UMZG/Cl35KTp9num1U5pPik0Tuikz81S7qiy/RMXhlMK0jIGEVSUELnyenOPJZL3B9AB3+yVvYavcuD4v9/GgjtDe2Mhoeh4cySmtjM8M3oD4sHA1zTzWlp6opPfUWeMSz6fFn2LbxMTbl/wv7a+a+s9c6TvD2b+d5gnQyp+ue9I8zkf7xOhR/gkM9UKwVdEzez8dcRt7vyib8ShcSSZBOZbC9ddLEvY7g8DAUrYOO9mujfV1wJMEGMLW3TJps0xMUFoZO66az3c69utM+pGKa01AASzXHf/sDjl95b3sF6XT5awxcPkutOYPErByCDjfTqQWSnBWP3lzK5ct9TuXTfn6cHQ9ojJ77b/7z5Xysij/Zn/0Oe9IttBaepmnytynOHt/Zurfo6rOL46ubID8z90eO949q8wkK6u9me8p60v1Ocm4ggcxlIdBzmEuVk2YV1CZO/O6nGO7dTWZiMumxy9BfybC5g+I3nuPVE42OPfzHnnn/vKR/nIn0j9cxz++l99XzpTUGklSVQ0UWCgeurhFlaZKRPZOvpzSNd86aMaTrWResY3XgtckmzapxrsjMz2ptbpV1Nv08m8v6ZjceOvt5zUl8G0vv5JDlumQSca4owcQnh6NTDGR+/NtkTvqz+9JU/JU6um+VC2inzkNH5KrNRLuNUPqX53j7nO1KAgP63IVZQj/B5GXTdhLMdWO7ztstwvyotJ34DQeL+u383Up/o53PzT2Frfetw2e4hQ5rGJn37uFixStUjyxk5hX8ouPwN5hpLzhF8YQH2OjQRd0EjdCRLC5wfQCNgfoLlLba275XY9Te7XKGYJJSY3G3DDCoeROZkkZjZyFdC/zFmS5iLVvXJsxwO/Mojade59IMTy1zyUgNJw+dY23iRhJSItDVNNwaFwKqigropnwdq6A32PmKVvrHGUj/eF26cEJC9Kg9LQ7si6TgHhqOr6JS3zrxoR4ogWOTkZYy2m0mI/UhkQQoKu1tbRPbp+JPcKgnilpDe7udlmsxYwGMbm6unpl9rpT/QAGXK00sTcklNWg/J8zZpMUZMJWfvbpn1+zy48J44Orfe7l86Bh3pG8ne+sajlUenfg0T2eP7+zpLLb6PNvyvFXyM1P/qLZz6WwZWz6SQvbyUAoaVpMWCN0fnqbezvhB7S7kyIuFHAF0br74B4cRHJPDunt2kX7fR6ks+jHnXb2lf77LR/rHGUj/eF3z/F7xMXoSDXDhgoXfNUx8Wq8h2v5rrMMqr51XeY2xh3QEeStE+uu4O03PygwDG1vNHB5xPf38WYD65uz4mdnGNwWjuxsKJixzfO0lk4hzxTuVhGg91sZD7Hu/1GbG3I0l2z7NmugM4rwP0j1pMKf38sZNwWZ1jjJ2u6BmwWxn/zJn088b0wgmFHw8vdBhu4RawSPlfu7bGEXHiRc4XDIE6PDx80On9dPdMen5SooHnt4LXw21kUFGNQV3T89J+0QouHt6oGjDjMxm4ss8dnGh9/DAADZL2BV81n2JLzyYRM2fv8UfzvQvTH6cNJYfDUt3NZUlLY71UYoXCbs/zZowMzWv/Tdva4/y1EPbuHd3Ib96tYiFy76Cu7s7imZiaMrScANG4/T3PeiMRvRMvCVAb9BzZR8bl9OrKqoGisEwqb2Ae+x6NqUH0V10gPPj6/Y1ixmLpmAwTp72UjAYDaCZMS/gRNxYfjTU4W46OwYcHLMYCU5ZTpy3la7iUxSTzbr0BDJTWjl5uW3BvlUEUIIyWbXpOg9WKX/TxUlEHRE7v8Xj2/y59MI3ebN44plp6lh71humxrlFE8+dpPV10q8pREcvwV8pu3ZxY4gjJtrOVK30j1fzI/3jZAoGn2B86KVnwH5UUHzCCfYCtb7ZgYctKfj4+aPDylD/4MRY5ZlAbIQetaXa5qFUOgLDwzBgoqtt0p6iujBCQvRovc102tnUVO3poFdVCAuLwF2pmrNV1i6Vv9ZPeUEpprQMUjNCKBxdTqzeRFVBAYOzzJdL44FJLLXvc7LyDnan7GTtkpMcqL32WTt9fKfa1y0yvnLm+GYzVk3B6HZlL68r3HD3nBpP5jc/rvaPGn0Fx6nYnU7q8rUsC87Bj2aOXqie+rRQgxc+3m5oo/0MjlhRTf10N/fT3VzNQFA2T21fQlSEnvN9Lj44bZ4/L+kfr+VH+sfJrt8/YoVRwN8IOpjQPrxCDTwRr9BYa+a1NtfmG/08FHSaRtugNun1Cj72vj/TQYCbgmrR6LOA1arR3qfR3qfS46XjX5MVEny5NinobPp5Nf/1zenx82zjm+JJcFgAitpId8/cLmNYwF0Ebm1uCenEGlTaLx2hoOAcl6/+O8XZwgZUQyJJie5TXqfErSE71KZSeqaSnuKLYmmi1c7DKJxNDxqm0VFQvPD1m7tvy9X2KpoGwSN9CzkhNvkxRJBz53Yy0uNwH72yZEClp7MTVQkiPjXaZuZawT32TlYkzLAZhGbCbAbF3Rfv6ZcROZ//pnIaRhQCszax1MdmmOWTQW5WCIxUUtvkemPTeuto7tfQJ25kebhNxo3R5KxKxk3XTWvTtR1w5zs/1zLmWHmqTeXUj+gIX76BaHeb/OgCydz7DZ74wmfIDph4f5Fn6l7uWx+Guep13j7RQufJlzhcNUrQuk+yI81nVvlxjsbw0DCa4klQiO+EIGcISCQmcIa15AExRHnbvMIYQniwO4raT/+gnfJ3ML020kOfSUMXuIRoH5v0ej+iooIxKMP099tcVPV30mMBz7AlhLjZ7gUVSnSYF1i66O6fi85gbNNvRe+OcaZm2N9Bj0XBJ2IJ/rZ9qOJJROZG1q7NJWrSDJ0xNIPMWB+s3SUU1w8wWF9ARbcVr9gcUkKni0WO5cdZ1svP8x/feJrvfH2af9/4sstPZgaVrvp6Rg1+pN+xjXDbUzNEkLt5Od4M0lTbMmUVovPxfHHQugsoqh5FH38/H3lwEwlRkYQuyWH9xx8mzW3qN7XSP46T/nESBZ+cx/nbf/rffOmf/o0Hs/3tpwqJJEjR6G9vtfuAook0RoaH0DASkRDP1U9V8SNp172kuJuoO3/OZq9EPUFhoejUdjo6J9ZdxSdibPKyvZnJd1EDaF3l1HVrGBNXkOwzd/eUuVb+GoPF56gx6YlMX0FGaiJ6UwmXiyftIelifpwbD9ihdVJw6BS9hJN75ypsT8vZ4zvXvhayPjtmTspzpuN3NNBuBe/kXJbY9Mv6kLUsi58aT+Y3P673jwzmk1/UjxK9lS3LAtGaTlPUPPVz0sXexxPf+g/+em8OnhOGpR74BXijaKOM2gsc8zYedo70j+Okf5zEsf7ROqBSZQLvcD2bvG3+oFPYvFTPqnAFT4v9CcSR8d8HeUyfi44hDVVRSA9TsK0FnoF6ttrZGkofYOAft7vx3Wwd3pP+FuQ5NvFkuzWrs+nn1yzqm4OcHT+7HN+u8MkmPcGI1l1O3WweIGmHrEScEwZiUlJw13qorZj8LZVKV2UpPVocS5IT0BcUT/iWwNRkJf2vvkV8aTFdFj8i05cTH6jRdeIgxXZuQXE2PVhpKcqna/N2sh75BzyWVTNwJQPWGs6+eoRmFXSRm9i5KYkre+saQyPRoSN0xcPcHzs+uWFt4dLb+6ke1sB0iaPvXWLpR5ax+yvfJrOkjM5Rd4KSsogPdqe/8CVOXt3fRKXtzEEqNnyGlO1f5cmoM1S0jOAWnETyUmhvHIW4aYpWbaKytJMNG1dyz1//DclNg2MDDW2U+rw/cnF8QOF0/ocv8uH7ZSTet5GHvxpDeUkNA/gTlbaMKN8Rat58i9LZLCuwlHFyfyHpH81m55e+TVppOV0mD4ITM1kSaKDn3Gucse1k5js/VzhYngxf5MP9JSTuuZtPfS2J0uIa+lUvgpJySI70ZrDgQ2psNzv0yWbn3k0EmsvZ/5fD4xdcLZz5y5ukfelhlu99mLJnf0Pp5DrqaH6cojHQWEnHkuWEJm1gnW8jHQMW9F5BhAbDQJ8FAu2/ztqnEb56C0Ht7Qxp7viFRhLkqTFUV0nrlNvonEivdlJT0Up4ZgSp6+4krKOTIasB76AwAj0VhhuLqbNdim5upqqyk+DUOJZv9KejvZsRPPAPDcffzUJXaRltc7GUT+uno2OI+LgoMtasIazPND6Qt9JTe4nGKxuEmVuorOggOC2ZVRsDaWvvYVQz4hUYQaifG6MttXTZdmJuEaRmxOFp7aTkcs34SpgB6i6XEL4ui+jMLNqPn6dtcpk6mp9FxlT6Fu8XZfJA5kd58u9XU1lex4DmTWhSFrGBRoZKfs+HxVO/RnU+njvG6XjoLK2dc398gfDHP0Xuhs/wqY2AZqa74BXOVn+U7Vm2iaV/lP5xOnoiUrPw0ytAEEvTYtEX9E5aaaTgFRqOt06lZvLtxnZpDBSdoGJXGqmbv8CTYRep7QK/+GUsjfRmuOwV3jnZfq0e6oIJCXEDSxudkwbYSuj45GVbi/2V9NZq8s/Ws2ZXFpvvSqX09RIHJjkd4Gr5DxZwuWKU5JTtbDC7Y6o4R4WdZYgu1QdnxgPTMFUc4Ez9eran7WJV1BkON155+qqTx3eqfc2iPOfLHJXntAbOcfL0PSRu2MbHnomitKSOQX0o8Wl+jHSYYfItiPOcH1f7Rxih6sxZelfcSYCPhfrDZ7A316XWn+VS2zY2LX+cJ7yyqWjux4IR78hM0lP8sTbt45K9243nazzsFOkfpX+cjiP9I2BVebNUJXuZjs/c4cbaNpUWi0J4sI50b+httvJet/13qG9RaUvQs3a5G16tKlcXqmkaHxRaqdGgoc5KQbyB5clu/LOflYJ+cPdSWB4Cjb1MuZ6y9qicGtBzb5SRf3KzUtg39uBmPz8dq0IUzH1WTva6nn4CRWH3Rjc+Fginz43y303OlfBUs6hvjnJq/DyL+AageJJw1z0sdbfSfPg4Tde7G1vR8eidRnZ5ahw4YeLFzpmTyyTiXNDFkLDUD0ZOUWPng1QbS6gd3EnO0nTCdcVM+IKi+yhvHIljx+7NrArzRhtopuT919l/4LL9waiz6QFL9av84WW4e8c6EnI3YrjyGCWLB5Wvj3UCSmAK2Wum3u7nm7CW3CubiFpLaXl/P9XDACpdJ3/K83072bJlLYnp61hisDLUUU3B2+9x5OilCQ/U0LqP8+ovNLbt3klG8mbWp43S21jIud+/SseqfyJ52kZpouadn7LP+Ak2Zy8jO9owtmGtNoS+6E9XOwHn82+h7chP+HXvbrZsXk1C7mbcGaa36SJ5r7/J0fymqYHaKSrdp3/Orwd2snXrOhJT1xCrtzDUUcXFfe9wOK+YiX32fOfnCsfKEyy05z3H8733sHXLWhLXJOGhjDLQVs3Ffe/xYV7xtT2NFH8y9jxGdoCJurd+z+nWazlVWz/g7QMrePLedezeU0DjS+cmnbej+XGONlxHwRlYmppEREgc8aFWRvpaqb9YzGD0FkLtTiICIzVcqgkgNSWeWB8j2mg/bZUllFS229+01uH0GsMNZzhtWkpSfCwhoTEEKiqmoW4aS8qpqG1n4k6DKv01pzg9mkJSXBTBkXEYsDDS30JVcQlVLf1ztLeela6yM1zWLSMxIpxIP9347U9mdK1FNpN2KgO1pzg1kszShBiCo4MwKlZGB7tpLKmgsq7d5iLbnfD0bKI8rXSX5lM3YLMic6Cay5WRrE2NIT29hd78pknn7Wh+Fhm1nfzffZfe9feyfvUyluRsxF0xMdhRRf7b+/nw6CXs3kXgQjx3hPPx0Hlq1xn2/fASeTEJhPkaGO2qoaF5iJRPPjwxofSP0j9Oy0r9mUPUpOwkmhpOn6m0c1wdQeFh6NReOtsdewK51nuS135p4K7d20lPXMuKpSYG2qu4uO8AR48V0WsbnHXhhIToULtaJu3VajN52do6TbxVacv7I6eXf4X1G57i4f5f8OqhMuwtWneOi+WvDVKeX4wpIxdfwzAl+YVTnggPrtUHh8cDM1FbuXD4POs/vYZV25Zz+vdnx/Pn7PGda18LV58dNUflOR1tmKo3fsgfhx9h6+p0MtYlMtJWzIW//JqW5d8ifso+ZvOcH1f7R8BSc57yvq2s9i6nML/D/u2YlioO//InjN6zm5zUVaxKcUOvWTENtNF45n/48J33abY7gJuH8bCzpH+U/nFajvSPY1przfzbiJ6HkvRkhelJ0cHAkEpesZXXqlQ6p/l8TV0Wnr0Ij6XoSI/WY7zy0BhVpfDS2CSiNmzl5ydgb7qeNSF67g6Drl4rH5y30hTjRvbk6ylV5S8nzQyl69kcqufOENADo6MaVfUWXi+xUqPOIr0tnUKsz9gxynscLtgZuV7fHOfw+Blcj2+KNzFbn+ahDeGoLfs5cLTxuteNirtCjAdoVo3y6SZubdNnZmYu+FXZsgfupvCNdxf6bRcVJeJenn5mD4EXx59eN8fphRCOU3xSWLcxHa/mUxwqsHNbzSzTC2Hr1o3n7mR++ofszazjwH98nxPTjVyvQ/pHcTPRBa3m/qc/S06IgaGm81z44HUO57dIPRRilpTw3Tz51QcJKXuB557PY7bPCLoVSP8oxBidr55v32EgetjKdw9ZqLyp48PcjJ/BQPCye7lj22YyYv1Q20/wxq9+S5EDtzIbQgz81zo9Pt0W/v64lY7rZEH2RBRCCCHErCm+WaTGG9BGWumc1dIVIW4eatcZXv/R93j1SBEjIStZu3KmJ8ELIRyjI3z5GiJ0w1SevygTiEKICdx8dYTpYKRbpf4mjw9zN352I3r1LrLCR6k68jzP//g3Dk0gAgT6Kfgo0NGlOfQ0eLmdWQghhBDOUXxI3PYgmSFjG00rem9Cl2YR7Wuiaf/7VC7k47eFuNFGGijc92MK3wsgIgSmbKErhHCOPoFluZEoQ2e4NAcPCBJC3Foi/RSMQFWXxk015JzX8fMo1e98j2c7Guh38qnr0X4Kek2jslt1aMWyTCIKIYQQwkmehGVsJDfeAGhoVhNDnZVceP113j9WJ7dMiduTuYeW5hudCSFufoaEdWQEKQyePUWFveeuCCFua1F+CjpNo7xbs79f6qI1n+NnK/3N9c6/TFGI9VNAUylzcH9J2RNRCCGEEEIIIYQQQggxI9kTUQghhBBCCCGEEEIIMSOZRBRCCCGEEEIIIYQQQsxIJhGFEEIIIYQQQgghhBAzkklEIYQQQgghhBBCCCHEjGQSUQghhBBCCCGEEEIIMSOZRBRCCCGEEEIIIYQQQsxIJhGFEEIIIYQQQgghhBAzkklEIYQQQgghhBBCCCHEjGQSUQghhBBCCCGEEEIIMSOZRBRCCCGEEEIIIYQQQsxIJhGFEEIIIYQQQgghhBAzkklEIYQQQgghhBALRME9aCnpKRHob3RWhBC3menij4GQlBUsCfJAceg4zqa/dRhudAaEEOL2YiQwZQMZUVYazp+gts96ozMkhBBCiFvO4hxv6AOy2PDAw6zPisRQ8mt+UNbC4siZEM5YnO3LcTd7/l0zc/xxI2rTUzyYZqbt0n4OvPEulT0zlYuz6W8d+rCwsH9d6DcNT11KW2nFQr+tEELceH6b2PulT7IyLYd0/wbOFDTL4FkIIYQQc2sRjjeM0Tv5+N9+lhUxbnRfPsiRI2do7B5Bu8H5EsJpi7B9OeVmz78Lrh9/rAx1d2F2jyRx2RpyVyRiqrhAQ/90JeNs+luHrEScI0rYPTz5tY8QdXVNrIZmHWWou5HagiPkfXCSlhHpIheegdRP/ICPLW/n0A+/y9EWdWHeVp/C3d/8GmsC7O8YoPV8wAvfe5naeY8xCj7rn+HLe9MnLtdWWzn+3D9zsG6ByuNGGf8cVnN4fsrbleMP11Nb28eSGAu1Vc2Y5zhL4nZyg+IbgOJF5Kr72Lwhl7iIANy0Yfpayik+vo+8c/VIdzd/ZLyxWMl4Q8YbMt6YkU8u9z6+l0SPNvJf+glvXWjDcqPzNC+MBGbsZMuWdSTGhOClNzPYXk356bc5fKyUAZeagrPta2HaoxJxL08/s4fAi//Nf76cf/NOQt2k7UsJuJNPffMTxE+7J4BK6/5/45f7G5jyic+Y/1nWn/mOh65wKP6o9Ncc53DNaS7mfJLHPrGBHY8/Svezv6F0wN64ytn0tw6ZRJxTGtb2S1ws60AFFJ0H/vFZpG17nKXJ4bz4s9doGL3ReRQLQuul4cIxjN4KKP7E5mQRQgvl+ZUMaKANjv13IZjbCrl4unN8A1QF3/jVLA1ZmPcWdpiryfvp18m70fkQwlWKJ3H3fp1Ht8Sg9NVSmX+ZQV0wsWnL2fCxTBLCnuW3b1dgutH5vKXJeEOMk/GGmM6iGm8YiNm6lyx/K43v/YJ9F9pu3gmnGekIWP05Hn84G29zB/Wlp6kweRCUmMmKB54hIepnPP/Hiwy60CadbV/SHufZomlfGmpnCYWVnVMnClHpaxy0v9L3Ovm/teqPs/HHQk/+i/wpNIond61j+9YjVOyrmuE1zqa/+ckk4hyz1B3h3VdtvonRBZDxsW+yd8VO7lx9lN/ldcqS/duB2sqlt17gEoA+jd2pWQRTysk//Z7qBY0oGqOVB3ir8srPBhL3ZpF003YCQogbTQnbxo7NMSiN7/C7n71G/fiqN53/ah784lNkbX6Q5Sf/i9Nd0tvNJxlvCEDGG+LmYEgmOzcMZfAUx/Lqb92La0MK63ctw8dUyv7nfszJlvH1XcYlbP7c37Ft5UOsySvgUKOzKwGdbV/SHm8n1vrD7Pvj+TlsV7dY/XEp/lhozXuH4k2fJyt3PUveraJ6xqXTzqa/uckk4nxTeyg5cZae3B1EJ8RjyOu0WS7sRvCyu9m6ZS0JUUG4qYN0NxRScOQtThV32FliayQwfQd3bFlLUkwYXgYzgx21VJ57lyNHi+id/ALFndCc3WzZvJr4qEDcGaGvqZSio2+Qd7Hp2ioRXTgbvvBttqmHONS2lPXLI1Gbj/HuX/IJv++TrI33YajqAG/+fh81Q5rz6V0436vL4/N/xQtlyezYvoqYQA+s/Y1UnXmTAwfzmbJvqT6E1B2PsGV1GqE+OoZbL3P+nT/Rok13GeVE+StBrPn8d7l7STH7fnKEgF0PsTwpHE9liO6asxzb9yr5TSPT14OZuFCe18rnl/zmcgJ37VhHXIgn6kAT1WfeYP8BO+XjNAfLZ7HVB5/NPPaPnyZpQnS7k898/06bny1U/fkfePFE77Vf6YNI3Hwf61dmEh3ijxuj9LdXUX7yLY6crGBQncXx7d5uZicPthxtv86Wjytcqv8S327N+Kbgk5hGuN5K9fGDVycQAdTe85zO7yTzjjhiogyc7rrhN8/ZpfPV8693GAhrNvN/2nV8PFnHUk8Fy6hGUb2Fl8tVOuxc30VEGngoUUemv4KHqtHWq3Ks0sr+Nu1qv24MN3sIpNgAACAASURBVPDsah2nT5r4bQeg1/E3O42sQeW5/WbOWkHvZ+Dbm3XUnDHxq7Y5PDEZb9hk6HZpj06S8YaMN+xZgPGGEpJIjA+YiwqonqH63uzxWfFfQqSvgqXkGBdabPpAcz0XzpazMSaJ8ChvaOy3eZHj5b8gHK2fNjRNh3/6Hnbs3kxCmDfaTPHBmfN1JR4ulvalBLH6c//OPYltfPjsdzjcNLHglPDdPPXVBwmtfpnnfn6Ivqshy9n+2gmuxAdHuRoPF6B/dDT+TDFSTFmViWWZicSE6Ki+3jYlTqQPiDDw1Rw90WgczjfzYot2U33xKw9WmSOKdzIrNqTj1XKG45daJ1QCJSCLNasTMbae5XhB8/hSYz0hm77EEx/bQIilhqLTJyir68Ujbi0rN6wjvPcCxY1DNsfREbTub3ni0TuI8R6huTSf6oYuCE4hNWcjmeEdFBc0cO3uJQNhW77C4x9dS5i+g5pLBdS2DOIZk03mqvXEmgq5VNs/dnzFh9g121ga4UnvqVc4eG6Y2PXbWZHtT/N7L/FhlTepm7aRqi/mXFkXmrPpXThfxSeFlevT8NaFEBE1SMXRg1woqGIkOIvslRtJ8awkv6Tj2jcJiieJD/49H78jCfeBCkryC2ka8CZp8wZCFW8C/IepOXmUuqv39DhZ/oon0avvYmmAimdYIrq6PM6cOU9ttzsx2etZnhNK5/nztNvr6XUhJN+xnihqKThaSM/kCOFCedqWT1SsmZqTh8i/VMmAVwrL1txBqncV+SXtdr5p0RGYsZ3sGAsNpw9R1TtduHKifBZbfVDc8fLR6G+uo6WpB0NIGN7WZsov5FPXWEdLYx0tjbU0VFyiodtypZGS+eg3eWRzEu69ZZReKqS2sQs1KI3M1ZtZaiihoLx7rO26dHwDHj5ujLTX09JYR6fJj9BAN3qKD1Jg955DJ9qvK+3FWU7Xf4lvt3J8M7cVci7vIEX1/VgnjI90+KVsIzfeSOvF/ZS0L8490BR3HVvjdPgpOuL8NAqqrBxu1hjy1rEhVk+uUSOvTZswcI1KMPKPOXqiNI1TdVYu9oBXkJ5t8TqWjKic6WW8PBVWxutx71E50Qt6Xz0PxOkwAh0tVkpGwRikZ28knClXqXBhnlXGG9IeZbyxSOqDjDccHm/oo9azZVUsQ8X7OVXeM+3F8k0fn/3TWL0+DfeG4+RNis+mhlPkHXyHS022jde58r/G0fblZHpn6ifX6oO72Zf4lUswVRZQXdeBFrSU5My1JE+JD06er7PxcFG1rxEG3FJZlR6P18BFLlT2Tehng9d8lK0pPtQdeYmz9VdmtpyMVx4J5GzOwq/tLMcKmq8/CeV0fLiW3+vWH1fKc4H6R0fjz1QqbjHrWJ7gQ0/R+5R1Xm9c63j67DQj2wNAr1eI0am826TdVCu0ZSXifNMFkr5xJQGKhdrq2muVwzOXLTvTcO88wks/fomq4fHqfOQ8u7/8ZVbuvp/kgucpvRJT3LLYvCsLr+FC3v7JTznXMd74DBGsffJ/sTPrQdbFn+W9K+tmvXK5Y3sy7t3HeOXHL1A2PphVfLK574t/y/Lt95F25hcU2XxTqw2WkH+ujAa1g4KGu9jJRc5crqZPd4Syu1azakkcvkoFPc6m11w433EG72ZO/PS3lIzns7ioHu2rX2Pt6rtI3V9CwZX8+6xk3epQ6PiAl5/9A7XjcVAfeicf/+LHUCZ/Li7mB10gQ2f/hb+cHQ9AF05ROfR3fP7eXFZmB3L5WJcTgWkip8rzavm0cPw/n79aPpfOFTH8xX/hztU7yDhQzIV+F3PjQvksmvowWs6pP5ePvUCfwt3JWYRQwvE/zbCxr0ckwVRRfOgk771z8dr+UYYYtnzxH9myYTvJH1RyeQTXjm97u9n4ZsXpCcnTl78L7dfh8pkNR+u/xLeZz9fZz2uRxTfNNMCgvQkMwxJS00NQRguoqnX9u3J9xhN87fH1eEw5sXHaEAW//hqvXZ7dfSIGN5V3jlg4N34uZ1s0tC1GdsTqWVGmcmz894pRx4MpOjyHrPzgqIVL4xeWSqXKpzcb2ZamJ6fZwnkzqMMaLVZY6q2gQ8PNVyFkWKUMHTG+QB8EeysYLSqNw7PK/lQy3rgt26MrZLwx8/HHzlfGG3M63jDo0QMWs2Mzc7dcfJ6Oi+U/b5ypnzbcw1UKf/K/Od0+3i94pHL3l7/KmsnxwdXzdTQeLqr2pdFfdI66+9OIz8oh5GA9bVfmlHQhpGTForOUcbnIZlLL1f7CUc7GB2e4Up4L1T86GX9sjb3GD72Ds2aOpi+ts1IRoCcKlaN12o1/8JWT7D/KTbjMsGQLdz/0KPc89Cj37H2CTzzzzzy0PBBL434+OHttfyJdVDKxHhpdBceoGbap5sMlXCxoRfNKJTH62vOQdKGJRHnDSPER8jtsLpwsrVz84D0uX6pixOh2LX1kMjHuGt2FeVTY7KitDRRx4VIHuCeyJHLSx69axr9ZsmC1Albr+EWIFasKit6IXnEtvbPne4W1rpAq247EVEV1zTAYQwkOvJYZXUgMoXoYLL84YTN5a/tJCmvsfD/uYn5Q66gq77UJTCo9NVX0azoCQ0OmXjw4w9nyByy1BRPLR22jvrYXTR9JWIjrzdul8llE9cFpw8V8+OLP+PPbFxk0eOHt64+Prz8+nkP0dJrBGEKQ38KFS5faL/NYPlc4WP8lvs18vlfcWvHNg5i7HmVNmJXWvLe5PIsnOWhdxZw/fogzx6b5d/woVV2zX+Vo6VEpsp0MtaoUdQF6hQjPa7/W+elINkJrk5Vim1GeZlb5sElDddOR6XfllxqNgxDoDW5AhK+CMqhSNARRvgp6IMwHGNBonuU1oYw37KeX9ugAGW/IeGPcwo03nCuzmz0+O8rV8p83LtZPteYUBe02/cVIJaXlfVPig8vn62g8XGTtS+vL53K1GV14Lqlh195XCcwhLUaPufocZdfuY3YxXikYl3+eb/3nL/nnyf+++zRpi3jJ2ML1j7O/BnL2CNdL39tm4d8PjvI3B8283HZz3coMshJxjinoQ5exMtTmV2oPdcd/x/738miyGWwqHt64Kxr9ZvD29bepOAqYR0AJwMN2GYabB25ojA4PTXryksZo+Vtcmfi/dnwv3BWNweHhSZVSY3R4BE0JnXj8eeb0+Y6zjo5OWdprMVvQ0KO3iSmK0Yhe0TCZzJPO18To8NTVKq7mB82MadJXBdpAPRVF+Rhah6YvgHmimkxTysdqsYDijtHo+ufrcvnM8/EdrQ8u5AjvpJ3sum8HaTH+GCa/tVWHsoBjOFfb7/yVz5W3d6z+S3y7+pfbJL65Eb7pczxyVxyWyv/h1YPVs9qzR205wcFXT8ziCI6xWpiST7M6Vlq2EyiKETwV6FbB112Z+BmoGig6vI3jP2saTQOg91MIViDKT6GrT6NWrxHkp8NDUYnwVhga0Oie1YhRxhvTkfY4P2S8IeMNW/M93ri547PjFlv8dLV+WoeHJq2k0jCbTFPig8vn63A8XFztC62XsvxyzMlppGaEk9fSjIaCf0YuUToTNfn52C7idjVeaT1lFJbZeeKwuYqexbmzDHDr9I+3I5lEnFMao+f+m/98OR+r4k/2Z7/DnnQLrYWnaZq8LFsBBT3Ru77FM7vsHWoERZmY3inK9V6iTDz+fHP2fG+i/GgdJ3j7t/N/wbug5vvzWmT1QRe+k0ee2EuMuYpzb7xCRfvw1b3Eorf+FVsSFi4vwOJrvzOwW/8lvk10S8c3N8I2/jWPPZCJsf5t/vDCQdpuuafRKShAUqobP0q9furWAQ0tXCFUryPWB5obVRr1GrpwhUidQoQXNDfPdu8bGW/M8Ha3cXu8Ccl44/YYb0z70KHZWozx2QmLLH7Oe/2cw/O1Fw8XXftCY+DyWWrNGSRm5RB0uJlOLZDkrHj05lIuX+6bmNzFeGVtyuPdP57A1bucb5iF6h9nFX8UJw/hbPqbk0wizhetl8uHjnFH+nayt67hWOVRm6cuARpoqLSd+A0Hi/rtvN5Kf6N1Qnrn3v96L9EWtnI7e763W34Wm/kun0VV/joiV20m2m2E0r88x9vnBmz+ZkCfewPqwWJrv86S+Dbp77dqfHMjbOPn+OSeLAx1b/Hy829QNwf7Nuki1rJ1bQLGaVOM0njqdS5d7yl5c2bsNpOGWguv2Ht6ngY9NtcBHf0qZr1ChK9CjIdG9QAM6TV6PRRivBUi3DSa++fw1hUZb0x+u9u0Pd6kZLwx7hYfb1jMWACjm9t1kzpnkcfn62d/EcXPBaif83q+i7B9AQwUcLnSxNKUXFKD9nPCnE1anAFT+dmre0Jetaji1QJYqPN1Of4oGN3dUDBhcegLcmfT37xkEnEeWWrf52TlHexO2cnaJSc5UHtt3a02MsiopmHprqaypOX6nZVpBBMKPp5e6MDmFiMFj5T7uW9jFB0nXuBwyZDN8RXcPT1RsA3YCu6eHijaMCMjCzeqd/p8nT2+2YxVUzC6GSd9w+WGu+fUaj7f+Vkoei9v3BS4to2Egpu7O2gWzOZZ7Ek235/Xoip/HT5+fui0fro7Ju2krXjg6b3wYXKxtV9nSXyb4+MvyvhmJGzD5/jknmXoa9/k5ef3UT88N++kBGWyatN1HqxS/uaCTSJq5rEYax5WudSmcb13tQxqtKIjKkwhUtM4OgiqXqMFHXHhCqGaxvmB6xzESTLeuOb2bI/zT8Ybc+H2HW+oPR30qgphYRG4K1XMUXex+OKzeWyyQu/hgQFsVjQq+Kz7El94MImaP3+LP5wZmzBZXPHT9fqp9/TCyMTzNbq5TYkP83u+i699AaD1U15Qiiktg9SMEApHlxOrN1FVUMDg5DnERRWv5t9Cna/L8UfxJDgsAEVtpNuR+8KdTX8TkwerzCetk4JDp+glnNw7V+FjM9pUm8qpH9ERvnwD0e42f9AFkrn3Gzzxhc+QHXDt92p7FU2D4JG+hZwQmyBoiCDnzu1kpMfhPmqacPyGEYXArE0stX1jnwxys0JgpJLapoWr3M6er9PH72ig3Qreybkssbny1IesZVn81M1Z5js/C0WJW0N2qE198EwlPcUXxdJEa4e9z1fDNDoKihe+ftN/GzPvn9dClb9mwmwGxd332p44U3NDT2cnqhJEfGq0zTcrCu6xd7IiYYbNfRw6vvMWW/t1lsS3cbdsfDMStuGveezBZeirX+Pl/3/uJhABrJef5z++8TTf+fo0/77x5Vk/mdkZap9KuRlio/Qk2l6DKAprs43880YDG202+leHNFpUhZgQHX5DGs1W0EwaTaMKsSEK/maNxtEpbzM7Mt6YkJ/bqz0uDBlvXIeMN2akdZVT161hTFxBss/c1ffFFp+13jqa+zX0iRtZHm7zQRmjyVmVjJuum9amwWv5cbn8HWtfzqV3vX7qE9ayzDY+eCwlLcUPxdo8IT7Mb31bfO1r/OAMFp+jxqQnMn0FGamJ6E0lXC6eOlu9ePsLJ+ubg+W5UOfrcvzxySY9wYjWXU6dIw/0czb9TUxWIs4zU8UBztSvZ3vaLlZFneFw4/iFz/BFPtxfQuKeu/nU15IoLa6hX/UiKCmH5EhvBgs+pKbX5qLMdImj711i6UeWsfsr3yazpIzOUXeCkrKID3anv/AlTtbYXFQNX+TD98tIvG8jD381hvKSGgbwJyptGVG+I9S8+Ralc3jRd13Onq+zBs5x8vQ9JG7YxseeiaK0pI5BfSjxaX6MdJgheoHzowsn655dJHgroPgT6wEKqaz76GfI0kAbLObEO6fpnGV8MTVZSf+rbxFfWkyXxY/I9OXEB2p0nThIsd2no1ppKcqna/N2sh75BzyWVTNw5WtDaw1nXz1Cs8r8l898H/8KtYnK0k42bFzJPX/9NyQ3DY59S62NUp/3Ry42q4BK25mDVGz4DCnbv8qTUWeoaBnBLTiJ5KXQ3jgKcbM5PugiN7FzUxJX9pY2hkaiQ0foioe5P3Z8xZC1hUtv76d6WFt87ddZEt9u6fimi9vDIw8uw5c+GgZCyX3g0+ROSKExWPoOh/Lbb4lv0TWzyutlKpmZev5ui8L5No0eFSJCdGT7KfQ1mSm23YhIHXsC6Ap/BWurSqsGoNE0CNuCdOi6LbTMQ8HIeMMmP7dRe5TxxnXIeGNxjDes1eSfrWfNriw235VK6esljM7BYRddfLaUcXJ/IekfzWbnl75NWmk5XSYPghMzWRJooOfca5yxnSRzufwdbF9OpXe9flraDSz73P8isbSELosvkWm5xAdpdJ04MDE+zGt9W4Tt64rBAi5XjJKcsp0NZndMFeeomLwM8Ur5zOf4zdX8O1vfHCzPBYvPrsQfxZOEu+5hqbuV5sPHabreXdVOp9fx6J1GdnlqHDhh4sVOJ85nEZBJxPmmtnLh8HnWf3oNq7Yt5/TvzzK2ZZSF9rzneL73HrZuWUvimiQ8lFEG2qq5uO89PswrnrinESpdJ3/K83072bJlLYnp61hisDLUUU3B2+9x5OglJrYxC21HfsKve3ezZfNqEnI3484wvU0XyXv9TY7mNy3cpsG4cr5O0oapeuOH/HH4EbauTidjXSIjbcVc+MuvaVn+LeInD+rnOz+KPzG5G8kNsF3sG0ny6six7PaYKHz3NLOOF91HeeNIHDt2b2ZVmDfaQDMl77/O/gOXpw2OlupX+cPLcPeOdSTkbsSgG+9JLB5Uvn6lE5jn8pn3419houadn7LP+Ak2Zy8jO9owtkGvNoS+6E9XOzGt+ziv/kJj2+6dZCRvZn3aKL2NhZz7/at0rPonkqcbdDh4fCUwhew1U2/P9E1YS+6VTZ6tpbS8v5/q4bHyWVzt11kS327l+KZ4euOhjE1YxORsImZKCpWuoWMcvkUmEQEaq838+4iBhxJ1ZMXq8FKgd0DlaJGF12tUumxPVBu7IDX6Q0u/Nv7EyrF9tgyhCr0D2hzFt0lkvHE1P7dTe5TxxvXIeAMWw3hDpS3vj5xe/hXWb3iKh/t/wauHyhicg8U6iys+q3Sf/jm/HtjJ1q3rSExdQ6zewlBHFRf3vcPhvGIG5ih+Ota+nEvvav1UOw7x+vtL2HH3JlaFec0QH+a3vi2+9nUlY4OU5xdjysjF1zBMSX4h9reQnufxm6v5x9n65lh5Llx8djL+KN7EbH2ahzaEo7bs58DRxpm3SnA2PaC4K8R4gGbVKO917axuJCUzM3PBx/jLHribwjfeXei3FeKWoUTcy9PP7CHw4vjTOW90hoQQQghxy5HxhphLuqDV3P/0Z8kJMTDUdJ4LH7zO4fwWqVdCiHl3/fhjIHjZvdyxbTMZsX6o7Sd441e/pWjaW5OdTW/zyhAD/7VOj0+3hb8/bqXjJvvWXfZEFEIIIYQQQggxr9SuM7z+o+/x6pEiRkJWsnZlAnO+BZ0QQthx/fjjRvTqXWSFj1J15Hme//FvrjMh6Gz6awL9FHwU6OjS6L7JJhBBbmcWQgghhBBCCLEQRhoo3PdjCt8LICIETNd/hRBCzI0Z488o1e98j2c7Gug3OzKz52z6a6L9FPSaRmW3elOuxJZJRCGEEEIIIYQQC8fcQ0vzjc6EEOK2ZDf+WOlvrnfiIM6mH6coxPopoKmU9Tj/8sVA9kQUQgghhBBCCCGEEELMSPZEFEIIIYQQQgghhBBCzEgmEYUQQgghhBBCCCGEEDOSSUQhhBBCCCGEEEIIIcSMZBJRCCGEEEIIIYQQQggxI5lEFEIIIYQQQgghhBBCzEgmEYUQQgghhBBCCCGEEDOSSUQhhBBCCCGEEEIIIcSMZBJRCCGEEEIIIYQQQggxI5lEFEIIIYQQQgghhBBCzEgmEYUQQgghhBBCCCGEEDOSSUQhhBBCCCGEEEIIIcSMDDc6A+I2owslffs2lnjazF9b67j49nFa1clpY8nZvZEI/bVfacNlnDl4nu7JaYUQQgjhBAX3oCQSQwYoK2vBeqOzI4RDDISkZOPVcZn6rhG0G50dIYQQ4jYjk4i3BSOBKRvIiLLScP4EtX038FJBCSRuzV2sCbCZRLScpf5de5OIYSRvuosMm1qq9SiUvn+e7gXJrBBCCDEbi6j/taEPyGLDAw+zPisSQ8mv+cENm0RU8IgMIjRQo6+6m97hGz0ltNjyI6ZyI2rTUzyYZqbt0n4OvPEulT2Lo10JIYQQtwOZRLwd+K1n9xOPkWSA0ZghfvjieUw3OEtazwe88L2XqZ1p3Gc5x5/+4emx/9encPc3v8bqBcmdEEIIMQcWYf9rjN7Jx57eS6K3ifaidzn1YfGNy5NnIClbownUgyXIysm83hu7InKx5UfYMUL1By/yoWk7a7L38GhCMgd+9VNONo7e6IwJIYQQtwWZRJxLigfhy+9h88ZVxEcG4qYN0d1QROGH+zh5uR2LvddcnRw7fP1JNVcN11Nb28eSGAu1Vc2Y5+EtxEJR8Fn/DF/em47e9tdqK8ef+2cO1l3nPu+FqG/iNmIg9RM/4GPL2zn0w+9ytGUB9xlQvIhcdR+bN+QSFxGAmzZMX0s5xcf3kXeunhFZQHQLslff9CzZ810+szEQ6OHsz7/FO5Vjva0h+TG+8NQmvNAxcPz/47nXK1jwnTAWW//rk8u9j+8l0aON/Jd+wlsX2uyOTRTfUJbfH4nvUAf5bzTRizdJDyQS4zVM1ZuV1PfbNDCvYHIejCZg2l22NQYKyjlfYOfWU9MIPR1m/II1ettG5vnzUQjemEFWnImatyuo7bETJBY0P3NDCQhjxe4IfK6Wv4ZqMjPY1kdLURvN7ZZFf8uvU/UNlf6a4xyuOc3FnE/y2Cc2sOPxR+l+9jeUDiz2MxVCCCFufjKJOGeMRN71FT69KxHjYAMVhScZ1IcQm7aOOz+bReyfv88rp9puzIDUXE3eT79O3o14bzHnzG2FXDzdOf5UJAXf+NUsDbnBmRJiISmexN37dR7dEoPSV0tl/mUGdcHEpi1nw8cySQh7lt++XXHDV3yJhaNZm2nrCWdpRhy6ykpUDMRkLcOzoYLmqBR8b1TGFlX/ayBm616y/K00vvcL9l1om3aVnaZqYxNPqoaqAWio6vh/NfsTNdrAAK0t9lvdSJfV/kSWdYi6A8XUOXkm82ax5ccJWl8fTU0mQEHv7UlgVAjJUX74Hq2gtN7u19iLhiv1DSz05L/In0KjeHLXOrZvPULFvipZOSqEEELMM5lEnCteK9i8NRG37hP8z09+S0n/2HShPngzH/3ip0i5+x6SLvyWcrmqFbOiMVp5gLcqr/xsIHFvFkkyiShuI0rYNnZsjkFpfIff/ew16seXHer8V/PgF58ia/ODLD/5X5zuklUptwtF6aO+QmFFejYRb1XSpCSQmu5L09njmKNv4CTiYmJIJjs3DGXwFMfy6meebLkymaOq45N/KqoV0DS0aV6odnRSfrL3pli9dytSO7uoOtt3tfz1QWEs2xFB+MowWpqa6F3Ms2su1LcxFlrz3qF40+fJyl3PknerqF7c86VCCCHETU8mEeeILjCSYDcYvHCS8v5rQ2hr5wmOfZCMJaYXxUMBkwY+m3nsHz9N0oTSv5PPfP9Om58tVP35H3jxRO/Yj0oQaz7/Xe5eUsy+nxwhYNdDLE8Kx1MZorvmLMf2vUp+08i1l4/ftjrhASaTj2lDibiXp5/ZQ2D+r3ihLJkd21cRE+iBtb+RqjNvcuBgPlP2rdYFknTnw2xdm0mEn4GR9hIuvvsnmrO/yUdzWnn/v77HsbZFejnhbHkC4EbwsrvZumUtCVFBuKmDdDcUUnDkLU4Vd0y9JcwrnhW79rA6K4kQXw/0WBjpa6L2wn4+OHiG9tFrExy6JXv5/Bd24X7qh/zoz8U2F3cGEvf+Hx5bO8IJR25XtseV+rbYLMTnhZHA9B3csWUtSTFheBnMDHbUUnnuXY4cLaJ38gsUd0JzdrNl82riowJxZ4S+plKKjr5B3sWma6vgdOFs+MK32aYe4lDbUtYvj0RtPsa7f8kn/L5Psjbeh6GqA7z5+33UDGnOp3fhfF1q7/oQUnc8wpbVaYT66Bhuvcz5d/5Ey7SrRJwof6c+XwWfxDTC9Vaqjx+8OoEIoPae53R+J5l3xBETZeB0l4s3j0p9u/nqm2Kkt6KA7tXZJEe8TqtbLim+NZwpHyTlLnvpHSxPJYjVn/t37kls48Nnv8PhpokxWAnfzVNffZDQ6pd57ueH6NNwuv91tjwBp/qXq3kNSSTGB8xFBVRPrr6TXZnMubJCDA3tysqw2XbrOm+W7kkk2lux+aVG96liCsqntpQrt+t61taR3+xN4rIA/Lx1qMMjdFe1UlXYx8iUB7O5EbwskvgkH7w8FCy9AzRfbMbu3a4LkR/FSGBWJAlLffH2VLD2DdCS30z/kqVkxI1Sva+Sur65/dLD2tVBQ2MomXE+BPop9HbbHl+Hd1wYcekBBAQYMWBlpGeQ9uJW6mpHJk4wK0aid6SxNHiAsvc68ciOICLCHSNWhtt7qT/fTEu3ejVt5LZUUiLN1L9bRlXnxHNSAsJZsTscr9ZGTn/QydVqOpv6NlJMWZWJZZmJxIToqJ5hW42ACANfzdETjcbhfDMvtmiL/lZvIYQQYrGRScQ5og30MKBCYGgkPkoxvVdHJRYaPnyeBtvE5hYqzuTRpwcUP2KylxFKM+UFVTYDXCvtbXaWLSpB5Ny/m77qwxy4MIpHZC5rNm3jgad9sfzglxRd2TdG66XhwjGM44NiY2gWmQk+1z0PXeRO7g5uoOz9FzljCSBu3d2s2v55wj1/xC9fK+battXuxN7zZT6+NQqtr4qSU1UM6MNIfuhxYvum3Rhp8XG0PNETsukLPL4nDX1HEYUfHqOXIJbkrOPOx5cR86fv8z+n26+twFBCWfXJZ7gnWUdnySlO1HdjUTwJTFhF5taniA3T84vfnGCOrxnsm019W2zm41vs1AAAIABJREFU6/NCR9C6z/P4R7LwMrVTW3qSrlF3ghKzyNn9JZJif83zvztp064NhN3xJT57XzLGgToqLhbRjz9RqTlseiydWP//4MUjjRMuxPSR6QSffolXirLZ9ehO9jwZwZk//5I/XLyLB/bex/13FfN/36y4+hrn0jt7vuNn7Wh7VzxJ3PMMD68PxdJZwuWTDQwZQknZ+xQx3f+vvfuOj+q+8/3/OjOj3nsFVJAEiN6rAWMbG9zikuY0J3Y22U1zcnOzu9m92b3Z3fyS35a03ewjyTqJ4xSnOcYdFwzG9CaBEBKoC3Vp1KXRlHP/kIBRQWiEGvB+Ph5+GEnfOfM553znO/P9zLeM1AkbXzxju78mncd/zHfPGLh6OobXEdMEPANT4q6T6tsNUt/6YzLq8yhu3UbWvGTKgpcQWr2H4i4bucPK+nA9TTtF+Re4MzOHnIUp7KupGnwfFywlweKiIv8Ul6uDz++/U/P+YgmPIcxi0tHcdO21GT1m//Nd+j9m/8iwy8md62C6aC+3Yw24FFcYcfHX/jhqRMUxN7SH5jPVXHT7EZkVR/KiOYT6l3H8aKdX/bcStTKD3Gx/PB2dNJ7vwWkNIGbNLMI7pyMeCxFL01mYGwjd3TRf6MZh8Sd61SzCe4xRnuF6mTh73ZhYsPkNipyQ+eksXR6CtbeHlooOHPgRlhzO7I2hhAeXcLpwhPUgDT8SV8TT29BMabkHW2QEyfNiyLndivuVShp7ANNJY0kHGUnhxGUEU97c5XUcg5DZEYRYPLSUtTEoz31d9a2P1mY7HksEEeEWGCWJmJ1qZbY/GBjclmrwXJ2pZS9ERER8pCTiBDHbj3Msbydpyx/iw48F8e7Bk5RV1NLlGqG74zjP4T+e7/+3NZu7sxYSyzkO/GEMG11Youg+9g3+dKy1vyN18jAl3f+bz+5cxorFUZx9r2Xg29x6zrz8DGeAS5txzE/PuuZ52EJqOfijX3BuYMRJYUEV5pe/wppV28jZfY78SyNRghazZl0ylvYj/PG7/8PZgd6TNeEuHvvCI9d8nhljrNczaBmb75pHQPNefv39X1PaM3Ad9p5gxxe/yIod95GV/zRFA6M7jIjF5GYG4Tz3DM88vf9Kss6yh/JHn2BF7BySgw7R3j0FWcTrqW9jZF3wSb7y+DoCr9YfMrvJ/9lX+PPZ65xnNEn3C/+FbNq+kOCe07zygx9xvGkgTlsiaz71t9y18EHWph3j9UvzpIKXcdsdWQTY3+O57z9D8cANNkIXc+/n/4qld9zLvKM/psDr/ppd58g7Xky1p4n86m3cxSmOni2j3bKX4m2rWDl7DmHGBVp9LW+O43wHjPn1HrqCtavioOltfvPd31IxkO2xxt3OBz//AYbd9nHGM9b7a/Z10jVSz882m5z5sRiOfEorJmBOm+rbjVHf+v+KhQqKzrayetFO1gRFUXcwjzbr2sGbUPl8PU06Co5Ted880hYuIfbNKi4PsLfEkr1wFhZXMWcLWq8kN319/52q9xebFSvgco5hhK7HTV+3E0ePuz+pY3pw9jhx9LhwXXcS0UHDyWoaBn70z8ogdixJu4Beqt6opmmgPjRV98DODFIyY4nN76T+UhY6MILUDH9ob+LMqzW0DpyuER7DwruTpz4e/3BSsgMxulspfHUg2QZYIuJYdHfwNZ9nwvlHMGdRCNauFgpeq6b50us0MJzsu+eQtCiBmJIKGoe2sYYfzpJiCksv1Z9WWvoyWbk8guTZfjQW9f/edbGFpt4IEmdHEXmyi5ZLTbERSNycAIy+duqrh7TP11nf+ut0ONZr3LaiSjcXIq0k4+HdSnP6NzoSERG5ASmJOFHMDgr/9D1e8nySO1Y8wENLH8B0dtBYdpqCQ7s5crqGEWYX+c5TSen5Nq+RGB5ay0vpMNOJiovFoOW6pma4K09T6t3x6CulrLyHNcvjiIkyYOBvlthZxPtDT/4hirx2zXM3HCCv9EHSsq8jiKk0xutpSc5iVqBJy6H3KO/xuj495ziVX8/yLTlkpFgpKhnIylkMDMDAM/h+eJrJe+7b5E3BqU0ls6WQEwd68btqiT4utkzA1PZJul+WuAySQ6D3xF7ymrw6N656Tr39Oqk9KfT6+cPApEJLUhapASb2I/u54DU/zuws4OSZJpZuymB2koWCEq8srcc1MMLChdsN4B4YqeLG7QHD6ofVOzsy1vLmOOrngLG/3lOJs0LX+VNUO7we33iI0+WPkJkz+DaNN57ra98CSd32YVbHu6l/6xXOTsQunapvw8vPwPoGgGHBYnFTU5BP18ZtzDdLeKOgCTPAimVI1tHX62m253G27P1kZC4jJ/4VGgZGOhlRS5iXasVZcpzi6xhWPnXvLz6MenN3cP6FQq9fuKh/9xz1ozzEmjaHTWkj/MHVSsHvK2m6zi+tzKYO7F71AVc39kYPKen+BIUYXPqQZYQHEmyFvrp22ryyRGZ7Kw0NyUSPkEec1HjCAgmxgavCTnPPleKethbqGxKJTJqYeMbKiAoh3M+kt6SFFu9Ef28HdVVOEucFExFl0Fg/pE6bPbTUeafdTHobu+kzgwgK88fA2V8fXZ3UVfSRkBNBQnItLZX9N96IjiQ23MBZbqdlaIJyHPVtxHO7xt/bGlz805taNFFEROR6KIk4kRzVnHzum5x5PY2MnAWkZ80nM3stWz+6kgX7/4tf7jrLdQ88M530Dfnq1Oys4kJBHrb67us8OLgdjmGLrbucLkysWL2Hc9j88cOkz9E7uBNj9tLbfQN9QBvj9TQCQwgwTDqcEBIW4XXOBjh7wYgk0GsYntl6lvMXXcye92Ge+PwKqmrqaWluoKWxltryEho7b6BrNAaeuoO8+fzByX+iSbpf+Afij4mjp3vIFC4Tx/mXuTSQ88rxgwkwTLp6eoYktUwcPb2YRtzg408yn893wFhf74afH1bDpK/POeR8+3D0jLBm2DjjGX/75k/Cxr/g/dvm4Cr5Pc+/WTbCGoTjoPo2oplW3/pZsBjgrjjM0YJk0rsPcq7FhKThiQWfr6fZRnHeeZxZ88hZkMD+ulpMDCIWLCPZ0kd5Xh4d1/HefrO8v5hdXTTUOoYl+k139/A1AsdzfJdn2LE9Lg9gDE4UWy1YMHEPG8LmweWcuHWaxxPP4PIenH1Tv2604WfFZkCPY/hzuxxuMPzxG+kbQdPEM7Rq9fbQUtWOpd37lW3SXmqnOyeBmIxw/CrtODEImxNOEE7qyjq1g7KIiMgNTEnECWfibC2j6HAZRYdfhsA0Nj7+FFs3PMbGvG+wu3ziP9ybTQd55RdTkMDxNnX91Sk34vU0wMBKyvav89T2kR7UizFoVE8NB3/5I2w7d5CbkcX8WYuwXirgbKJw1w95/uDFiUl03OIm5H75Wp+Naz3EGHz8yebr+d5A8Vy7ffMnfsNneOz+XPyqXuG3z7xJwyS+sFTfmHn1bYBhAK4yDvzi3zkw8DvLSIH4fD1NOs8eo8K5gIyFS4h+p5ZmM4qshWlYnUWcPdt+nYFP0fvLVTdBmhimvYULh+x6X5vprvnavOYL5DKzw875ffbhv7e3Ut8cT0ZiFHHBdmp6g4mb7Q/dLTTUT0bitD/gSa7iIiIigpKIk6+3nEN7jrMmYwPp2YlYyquHL1Z9I/J48AAWY+gmKgZW2w20scpYmWDioeHgz3mzYKTNHNx0XBz83brHfpq9z55mL2DxDyMiJp6Y1CWsvWc78+99hJKC73NizFPgZvYOgpbENWxZkz7KdGYHFw+/wJlRFjyfUL7eL18vrnmth5hT25kZR/28OeLxJ37DX/CRBxZiq3yZ3zy9i8qpWGd0KNW3IX+f4vrmq/Fcz858zpb0MTd7GTnRuznoXMy8OTb6zh+7vKbi9cUzBe8vLicuwM/f//riFd+Y/e/fQ6fVg4Fl+C+nIJ4xFLjuWTMOGkq6mLMmhPg5/tS1RBAbAr2FdtomvGkw8Avwx6APlzLYIiIik05JxAlhIfGur/P41gjOPPM3vFg4eP6b6en/PGa13TyX22xvpsM0SEmZTYRRjP3SB07bHFJTrp5KulGZvV04TBOXvYySc3XX/nxtCyY0xB/T0UFXrxtPXwf22g7stWV0Ri/miTtmk5xo5UR7/yde09FLnwlhwcFYYdAuk4HBARhmKw7HVZ5rBjCic1m58Robq5x/ccqSiD7fr75e+jAIDQrGAoN2kwzMvo97NyTTdPAZ3jnX7XV8g4CgIAaWibtcPiAoEMPsobd36rI6Pp+vr8d3OnGbBn7+fkMGqPgTEDS8XZvsePr5Eb/+L/jIA4uwVrzIb55+iaqesTyTgS00hlDaaO2cmGX1Vd8m+Pg+1jefjz+e62l2cD6/iL55C8hZEMtpx1JmWfsozc+n63pziJP8/nKJp7WJNo9BfHwiAUYpY3q53IjcHjwjfqFpweY39V9ymj1O+kyDsKggAowuLlctaxDh0ZOZRDTwD7Ji4MTlvTak043LBGvA8GthC7D2b2oyAU2jo7IF+7JQYtKiSAgLJwAHleVDlxCYAEYQMfGRGJ6L2Ftviq/pRUREZrSbcMjYdPDQUlWFwxbO/Nu2kuD9Jb8tkWWblhJCFzUVdcNHIZp9OJ1gBIQRcgPl3kx7PgVlDqxp9/HQgxtJT04ibvYS1n3wUeb5z+ARKOPkqTlPVa+FhKXrSQnw+tBviSL34a/yyc99nMWRV35vmXUvn/z6d/jMw0sIGjSNMZDwyBAM04HDa6cds7mEix0mftmbWBx7pZNsjdvA8uwAzPYSqptH+nBs0udwgBFMWPgYRpdMUn1zn32a73z1Sf7v/7rKf1/94vXvzOwDX++Xp7GUmi4InL+ZJV7XH1siS26/gwXz5xDg6Bt0/Opeg6iFG5kb6nX80AUsWxgLvSVU1ExdZ8bX8/X5+E3VNLohJGsZs70yxdbYNSxKG7b37aTH059A/AyPPbgIa9mf+c3/jD2BGLrkcf7q7/+FL/z9N3lwccR1xHCF6tuAaapvPh9/XNfTpKvwOOV9VpLmL2dBTgbWvnOcLeyckHgm8/3l8hm0nKfSbuKXsZys0GkYATdFzPZeut3glxhOhNf7nBEWSXz8NATU1U5jgwdLXALzV0YTGRVAcEw4qeuSiJ3E75atMXGkJlsxuzqxe41KNe1dtDsNAmdFEx3o9YDAUBJT/TCcXbTZJyDV52inrtqFER1D2mw/sLfSMBHHHSp0MfPT/TDt56mciA3cREREZFQ3z9C4adZX9DJvFeRyf+4jfOprqyg5X0mnGUJc5kJmRfnRfe5X7CvsHf5ATw0lRc2s37CCez7zl2TVdPUnGk0HVft/x6na8X0gsiRt5K6NmfgN9BP84pKwYCFu+aPcN2vgK2Z3HWde2U3ZeIYjmI0c/90zJDz+UZat/zgf3QCYTuz5z3Gs7BHuWDiusGeunlPs232OjAfu5qNfyaSosJwOTzDRmUvISgqhK38f5W1ee7hWHeNMw1Y2Ln2cTwYv5kJtBy78CEnKZX52BO6alzjjPT3NVcyB1/OZ9+gS7vnC35FVcJ42I5Y5uQuIC2ij8M+7qRgxB+emriCPlk13sPD9f03gojI6Lx3WXc6x5/cyqApNUn2bcXy8X/Sd4d3XzzD3oUXs+NI/knuumGZHANGZC0mLCaDj9K855L2eac8p9r1VTMa9G3j0y6mcP1dOJxEkz1tEclgv5S++TNFUDvPx9Xx91XmcQ0fuIWP9Vj7wVDJF5yrpssaRNi+c3iYnpExtPJY5D/D+BxcRRjvVnXEsu/9jLBtUwqSr6FX25DUOGfViJTFnIeFWA4hm7rxZWPPbrn+Rf9W36a1v44l/PNezK5+zFxxkZd/BemcAfReOc2GEYYg+v/9O9vvLJe4y8o5VsXr7QjZty6HohXOMkGucdEZUNJk5/aPuASzhARhAcHoyOTED70Gmg/qTjbQO3cV3LHrbqC6JIyonloU7Ammq6cFpCSAy2Yar3YToKY7H7KPmUDUhm1NIykllSQ6ASW9FDTUNgWTMGscxR2CJiSFzVRgYYA0OIjIpmACjj7pjDYOnEPe1UXG6k6jl0eTuDKK5pps+bIQlhxMW6KH1RANN4znPYTzYS1rpTY8lMNCkraD1+jcXHMoIIn3bPcwNcFP7zgFqrtWYGxY+fLsf24NM3jjYx7PNExyPiIjILUBJxIniaSTvl/9M27qdrFu1iNlLNhBg9NHVVEreK7vZ9+4ZRp5l0Uf5qz/iJb8PsWnxIhan2PoXUDe7sRb8YdxJHSMqm8Wrh08vDUtfw7L0gR/cRdS9tZuynnE9BZ6Wo7z0H2fYn5pOfJgNR0s51bXdZH/k0fEdcEZz0bj/hzzddg9bNq8hY3UmgYaDzoYyTr30Ovv2FzJo+SlXKe/85Ac47tnBkpyVrMz2x2q66ets4OLR37Pv1beoHZQU9NB69Mf8vPtutm5dR8bSTWTSQ2v1Efa8/WcOFDZfdQqQq+x5fvsbuPvOtaQv24Dt0hpLrkBKXhiSRJyk+jbz+Hi/8NBy6Ec83X4XmzevIWP+Wmbb3HQ3lZH/yuvsffcMg3MiLhr2/oCfte1g86ZVpC/bRAA9tNWcYv8LL/JuXs0U7z7p6/n6yOyhdNd/8Lue97Nl1XwWrM2gt6GQk3/6GXVLv07asKTO5MZjBIUQaBhgRJC6ZCOpw0p4aOl+j3eGJRHdVB3dQ3n2XaRQzpGjJRN0n1Tfpre++R7/uK6n2cX5vEL6FiwjzNbDubzTIyZFfH//nez3l0s8NOz/HUeWfol165/g0Y4f8/yeYrqmuNk3gkNImBs17ANoQHwkiZdGCno66Tw9zqQdbuzHyyjoSyItM4z4rGCc7Z3UHa2ic85cIocmESc9HjA7Wyl+pYPK6CBCgiy4O7tpb3UTvTFpfAccgREeRnI4gImnz0l3XROVZxqobRxaGUy6Css52R1P2vxIItOiseHBYW+n8lg9lRW9Ezbl2NPYTktPDMkBXTRUTEhm8gojhNQtT/K+9Ql46nbzxrsXr7nmuBFgkBoIptvkfNvEhiMiInKrMHJzc6f8e+hF99/N6V2vTfXTypQIIPdj/8HDuZW88Z1vc7B5SPWyZnP333yF1UEXOXu0mA4TcFdy6pUDDNuwzzKLJTs2kGgFjEjmrFpOQs8envnWb6i4+WZMi4iITDpL9Crue/ITLIm10V1zgpNvv8A7eXVTnIgWsBB32wIWpPZS8uIFqkfYU+dGZ0TEs2xnIsG11RzZ08LEpBFtxCzayW1bN7FgVjiexoPs+ukvKBjDVGZbrI1/W2sl1O7iawfcNN2s64KKiIhMIo1ElAllhC0kJ82G2VtP82hDUQJmsWDjwBwe1zGqXhspiRhP1sZtLPCqpeY4R02KiIhI/yyCF75XS+kdD7F53QrWrMjnPSURp15gGLFxFnA66LkpP9sYhKRFEmpx01zWNkEJRAB/UlZtZ2GCnQt7n+btNw9TP8aNpaLCDUINaGoxmYzlGUVERG4FSiLK+BmhZGx9kNzY/pWEDGsIcXMXkhLWR83utygZaXc/dzGv/dNfMKZxqK7j/OGvn5zIiEVERKS3mtMvfZ/Tr0eSGMsEJnhkZDaichOIDxuY426xEZwYRniQh468JuxTt+/Y1LEEEZ8WgOFoo36kNTrHzUHZq9/iu03VdDh9ywSmhBtYTZMSu0dJcxERkXFSElGuQxDxCzawLM0GmJjuPrqbSzj5wgu89V6lPqCJiIjMZM5W6mqnO4hbgGEhJDWaxLiBJKLHQ19nF7VH6ykr7rnmWn43Ikt8FPGhBn2lduwjfak8bm46aqt8f5hhMCvcANNDcetExiMiInJr0ZqIIiIiIiIiIiIiMirLdAcgIiIiIiIiIiIiM5uSiCIiIiIiIiIiIjIqJRFFRERERERERERkVEoiioiIiIiIiIiIyKiURBQREREREREREZFRKYkoIiIiIiIiIiIio1ISUUREREREREREREalJKKIiIiIiIiIiIiMSklEERERERERERERGZWSiCIiIiIiIiIiIjIqJRFFRERERERERERkVEoiisgNzCAgei7zsxOxTncoIlNO9X98bMRmL2d2dCDGpJQXEREREbk52aY7ABG5Xn5EZa9nQbKb6hMHqWh3T3dAU8IauZD19z/KuoVJ2M79jH8vruPWOHOZFkGzWLByERGdZzh5qpJec3rDUf2/Hv4kb3yCB+c5aTizmzd2vUZJ62hXz9fyIiIiIiI3J2t8fPw/TPWTJuTMpaHowlQ/rcjNKXwjD3/hI6yYt4T5EdUcza+96ZMJfil38cG/+gTLU/2xn32TvXuPctHeyzTndeSmFUDWw1/n/bcvJTM3gbYjh6hxTF80qv/Xy023vQVnQBIZi1azbHkGfRdOUt1xtZbT1/IiIiIiIjcnjUScSEYgCUvvYdOGlaQlReFvdmOvLuD0vpc4dLYR13TEZM3m7r/5Cqt4h2e+9Rsq1OcZgY20JV/mvpROju7/bw61e6Y7IN/0VFFR0c7sVBcVpbU4J/LY16w/BqHrnuKLD88fPJ3SU8+BH/4f3qychGsZuoydjz9MRmADeb/+AS+fbBj1tRWw9DN86bEVBNDLuV9/jd+d7J74mG4pfmR/8P/ng8vbePd7/8ieixN5j62EZmxi45YNZM9JIizQgrOtmtJjL/PW23nYR7zRkxnPJSZ9nW30uWx0nD5Iacc0put8rP83lutsT8b8fueho/wA75Qf4dSSj/DYh9Zz5+Mfxv7dn1PUOdK99bW8iIiIiMjNSUnECeNH0rYv8bHtGfh1VXPh9CG6rLHMmreW2z+xkFl//DbPHW7gBktP3RqMCKJD/cHTREv3DXiHnGXs/9H/Yv90PX3DaU4daR5YYNUgLG0Vc2Mn69lspG55mIURbi6+/mNeOtlwjVGXfqRmzcXf1UkPwczKzsR28vRNlHSZBpZoYuMDwVVEY/NEvl4sRK18ko8/upxwj53qohOU9QQQn72IBXf+JcnhP+DHfzwzfBrxpMXjrY+Kl/8v3355kg4/Zr7W/xvP1LYnLlrznuUPccl8avta7tiylwsvlY5yTX0tLyIiIiJyc1EScaIEL2fTlgz87Qf5/Q9+wbmO/s6sNWYTj3z+o2TffQ+ZJ3/B+b5pjlOGM2KIDrHg6W7Ert6gj0wcJW/wcsmln21kPLyQzMnq9NuyWLwsHqPrMO/tr7p25906m4zMMDzVb3KK21mbOZ9k62kqdZ/Hz5JAXKwFT0stTRPZnoWsYNv9ywnrOM4L//00eU39Y2qN0JW878ufZuGyjWS8eIazQ6cRT1Y8M5Gv9f+GM8XtCQAu6ve/SuHGz7Jw2Tpmv1ZK2ajfMvhaXkRERETk5qEk4gSxRCUR4w9dJw9xvuPKaBh380HeezsLV2obRqABfSYYkSx/4p+4N8vOez/8B94aktEwEu/lyafuJ6bkV/znT/bSfmnkTXAay7c/wKqFmcSGBWLFRW97DRUnd/P2m0dpdAwUDN3EY3/3MTIH3d3b+fi3b/f62UXpH/+aZw+2ef3On5hFd7Nl8xrSk6Px93Rhrz5N/t6XOVzYdGX0liWB9Z/7R7Z69rCnYS7rlibhqX2P1/6UR8K9H2FNWijdpW/w4q9eorz7Oqd6WWPIzNjE4qQM4kOCsXq6abMXkVf8Fmdae72vGqFpH+NjualU5f07L1b3eP0pjpUb/oJ1IWd5+c0/UeoGa9z9PL5qGUHeW2363cYHd9x25WezkaPv/TeH2nwf3WQk7uTJpx4gKu8n/PxsOtvuXMuc2CA8nTWUHd3F7jfyGLQuvxHN6s/+M3fPLuSlH+wlcvv7WJqZQJDRjb38GO+99Dx5NV7nOzBtb3Wk9wbrI93TofH8lGeKs7jzjpWkRgXi7rhI6dEXeeNNr3jGXX/Gc33GEI/342IzSA0FZ0E+Zb3D/z6sfNw80qLAnn+Cc8Zi1tw2j7R4C5W1Q+6pr9ff1/IA1mgyNt3LuhW5pMRG4I+DjsZSzh96mb2HLtB1KaTJbh/GwTrv4zz1qY0Ee79egnfy6e/svPKzp2b4dGL/ROZt3sGqJfNJjg3F5uqkpfIUR159nuNVg6eV+6UvJSPIQ93eXeQ3XZmUb3adI//gEYzYarquJx6/ZTz0jc+yoPlFnt3VzeLtt5MzOwZ/Vxv1Re/w5vOvUe41NdWI3c7jX32EVO95ta5CXv6X/+B4+9BraRC08nM89YEFVO36Vw4H3cltqxeQEGajz17K2bd/yxtHqhma4zSC01l+9wOsXjiX6BCTrosneffP+4n4wFfYELSPZ//5V5R53f4x1//x1M+xtv+Xr/fY65tl9sN89nPbCTj8H3zvj4VeyU8bGQ//fzy2ppeD413+YCLaq95Cikv7WJSbQWqshbK6a8ThQ/nIRBtfXmIlBZN38pw8W2dq7UoRERERuWEpiThBzM5WOj0QFZdEqFFI2+VegovqfU9TPahwG4VHT3NH9nJyl2eyt7LYq4NmIX7xCuItDi6cOHElQWDEsfIjT3FPloXmc4c5WGXHZQQRlb6S3C1PMCveyo9/frC/vLOOC0f3024FjHBSFy8ijlrO55dypY/sprHBu0trJXbj53j8gXlYmwo4ve892ohm9pK13P74IlL/8G1+f6Rx0HRsa9J8Yo78mucKFrP9w3fxwKcSOfrHn/DbU9u4/+F7uW9bIf/14oXxj5axzWLtmsdYGWmju62E0upOjKDZpMWuYEtkFOz/FWcuJyktRIbGYDHbaekaMlTJEk10sAVPVxOtAydg9TRSUn0SC2AEpZETG4mjtZCyDq/Heuqp6Ly+6ZGWpLvYGVvHhf3Pke8KI2nx7aza9lnig7/PT54/y7C8jhHNkvt20F72Dm+cdBCYtIzVG7dy/5NhuP79JxRcWovNbKP65Hv4hfRnUfziFpKbHjqmeO6Oqab4rWc56opkztq7WXnHZ0kI+h4/+XMefxADAAAbtklEQVQhDhhn/Rn/9blmPN7lw2MIs5h0NDeNYe1Hg7DM+cRbusgvraTWKKF3yxrSM6N4t7Z55I78WK+/r+WNSHI/9Ne8b0kY3RdPU3iogV4jlJjMJSx/35eZFflvPP1KSf85TXb74DMDm7OGwqP7sQCWqBwWzY2lt/oExbU9V66ju5oLjV6vl8C5bPn0F9g0y4/O6gKKjrdjRM0la+5mdnw6Dr77PY43Xz4B/IKD8TPA4xnymjM7ufDGT7myFdf44jGik4j2A7cxj/V3NFB1YhevHgklefldrF78Ph721POfvz5xZbq0pZWqY/tpNPrv3+yluUR319PSNdJFNIhOSMBCLwGL38fq2tMc2XUEM2ohq7dtZMUjf4m7+Ru8VuJVa4Pmc+dnP8/aRA/20lOcONWJX0IuWx+KozXawFNdR8uQS+Fb/ceH+uxj+z+p9c1HE9Je9dHabMdjiSAi3ALXSiL6UD471cpsfzAwuC3V4Lk6c1gyWURERETkRqEk4gQx249zLG8nacsf4sOPBfHuwZOUVdTS5RqpF2XSU3iAcx0rWLJ4HWmvFHPhUq/CksqCJclYek9y+mzn5UcYEYvJzQzCee4Znnl6/5XOkWUP5Y8+wYrYOSQHHaK92wTHeQ7/8Xz/363Z3J21kFjOceAPoyw0H7SMzXfNI6B5L7/+/q8p7Rl4gr0n2PHFL7Jix31k5T9NkdfgFbPrHHnHi6n2NJFfvY27OMXRs2W0W/ZSvG0VK2fPIcy4QOu4OpJWEjLvY0WkQV3xz9h1/uJAx8uPhHlP8EhmGvMToygobRlIGgQRGRKMYZZh7xrcoTMC44i0gaurkUt95r7mg+xpBjAIS/8E2bFh1Jbv4q2LE7vlqi2kjgP/+jTnBpKdZ44X0PP5b3D7qjtZ8EYhJ4cmpSxRdB/7Bn861tp/XicPU9L9v/nszmWsWBzF2fcGztdTz5mXn+FM/xkSuu4p5qdnjSGeWg7+6BeX4yksqML88ldYs2obObvPkT/e+jNOY4pn0AOsWAGXcwwpFCOYOdlpWPsKKa904eIcVX3rycjOJui9g4w4SHas19/X8oFJxFBK4Z5DvP7qqSuvX1sqmz//d2xefwdZb5dwthcmvX3wmfcUU4OITV9l4dxIqt79BbtO9FzlMTaSb/8oG2cZVL/xHX79RtlAwtyflB1/y+O3z2PpojhOvNMwcD1NesrOUuPMJXXr42zv3sXxgmIaO0eaJzqeeMAak0i0BQx3EXue3kXtQBU6c6aNsK9/mgXpOSRYTlyu42bDYd74/eH+H4LX86FluUQ21Q5L7PULIDo+Ggsu+k7/it/su7RD+kmqPEn81QMZZOSkYCkpH0jE2UjZ+iFWJ7qofPVf+dXblf1JQSOY7Pf/Ax9IgZ7Geobt2eFL/Yex108f2//JrW8+mqD2qv+ahmMd46eisZYvqnRzIdJKMh7erTQnduMrEREREZFJlnjbJy//u27f00oiThizg8I/fY+XPJ/kjhUP8NDSBzCdHTSWnabg0G6OnK4ZPOrMUcipvCaWbFzKknm/50J+/9Q+S+oqFsQZdJ88xAXvDpjFwAAMPIOTGJ5m8p77NnnXGb4lOYtZgSYth96jvMfrGXrOcSq/nuVbcshIsVJU4tUr87gGOsQu3G4A90DH2Y3bA4bVD6sB45q7ZSSTlRyL0XuCI6UXvUZuOGmy1+MiFn+/AC4ffmBdQ9PRROuQXpolNJYIw0N7Z/MIG2pYiAyJxmK20do18d07V0U+pd730dNAVUUbZkoS8bEW6BjSy/VUUnq+zeuSeWgtL6XDTCcqLhaDluuaCueuPD04nr5Sysp7WLM8jpgog5Eza5PH93gMxsw2l8w0f9wXz1HZYwLnKa9xk502n1l+BykaaTiQr9d/rOV7Ctn3bGH/GfgFExLoN3Am3bQ2OyExluhwC/QOZKhmWPtwhZXo+HgsZgvNTaMk3K1zWLgkEaN9P/v2lHm1fX3UVVTjNJPwDwrCu3kwG9/mz7+N5+GHbmP1o0+x+mEHHbVFFJ/Yw4EDZ7CP+PIcYzxYCI9PwB8XpQffuZxABMDZSU8f4HZfdeMrS2wS0RbobRohsQdgiScu1orZc4Kjh2u9Rl+bdLa14jHB9B5haZ3NgsUJGB3v8e67lVcSS2YP1WUX8awKx94w0kZcPtR/GHP99Ln9n7L6NvV8vMLXLN/W4OKf3tSiiSIiIiJyc1AScSI5qjn53Dc583oaGTkLSM+aT2b2WrZ+dCUL9v8Xv9x11isn4qL62GEaN+xk7oolBJ8+SLdpJXnxcqKNNk6eODtoKqfZepbzF13Mnvdhnvj8Cqpq6mlpbqClsZba8pKrjNgZOyMwhADDpMMJIWERXh1DA5y9YEQSGOhr9+o64glIJC4QPE1VNAzJswUGhmLFpKun40on2y+GqAADT0vTkJGPBmEhMfjjprWzdXgCzggmMjQIw6ydlJ2ZPX19w6Zzu10uMALw8xvheppO+oYkS8zOKi4U5GGr7x5e3kduh2NYPC6nCxMrVuuID5lUkxmPddZ85gSZNJcUD4xAtVNxoR5zTg4Zs2wUlYzwmvH1+o+5vEFI5l1sv/dO5qVGYBt6690WDO/lLWdY+3DlNEKJiQvB8FTS1HT1hLMROpvESAN3cQk1g57aIDgiHJvhoaO1dUiSzI0971f89OzLJM1dSGb2AubmLmbFfYuYn/NrfvbTdxi2+fIY4wEL0fHxGGYjtRc7h/zJQ3v5Kc41F11llCH4xSYSYbipHTGxB/jFExNl4KmpoHZQctogPDoKC27sTc1XHhs8i4RIC56SMuqGXp/QUAzTQUuj/frXzhtj/fS1/Z+y+iYiIiIiIjOKkogTzsTZWkbR4TKKDr8MgWlsfPwptm54jI1532B3+ZXOlaf2IPlVd3NH9jrmhx/ieGc6uYtiofUdzpQMGSblqeHgL3+EbecOcjOymD9rEVZjoFPnbKJw1w95/uDFEUbajZEBBlZStn+dp7aPdFq9GFOXQ8QSEkekAZ2dzUPWj7IQERqNxeykpavbq3wsEYZJT2czvUPKR4ZGY5ittHSNdHWiiQq2YPY20zZD55mZTQd55RcHpzuMmcEca1rFQlzWPMKMLqqb3UTGxgPgbq6h11jBnKxkLCWVVx15Nugpfbz+I5W3JNzF+z/5MKnOUo7veo4LjT0Dz20lZcun2Zw+/Dgzqn24fCLxxMZaMNvraRlloxZLXDIxFpP2+roh635aiI5PwOJpp6mhc+QHO1upLdxPbeF+9r+czLon/4Y7s3awJmM/r1wYcgZjjAcjgpi4QAz3BZqGZiKdxez/ZfFoJ90/2hEHLY0jfBEBWGKSiLFBX2Mdg1couDRS0k5z45WWyRKbSLTFQ2djPT1Drk9UXCyGp4mm5hHm4o65/l/diPXZ1/Z/qurblOqPf+yX2NfyIiIiIiI3PiURJ1tvOYf2HGdNxgbSsxOxlFdfSVx4GjlzrJjND2WzeGkc+dWrmBcF9n1HqBqh9+Wxn2bvs6fZC1j8w4iIiScmdQlr79nO/HsfoaTg+5wY70r2Jph4aDj4c94s6Bjh7246Lk7wgnijCAyNJchwU9XZMiTRE0RUSCiGWUGL16Yn/iGxhBoeajuHbJhhhBMVGoDhqcA+0kjDq45glBnJ5cQF+Pn7j17OiCEtKwGLYSP3g/9I7pA/B8zNIcKoxD4l99xC0spNpPj3UvSnH/LKce/kmQ3rsqu8rmZS+3BJUAIxoRY8pVdbGxDAICgugWDclNYPGblnBBMdF47hOU9j4xhSuK5aCvIruD0zg7BwGwxNS40pHsCSQGysFU9rHS0+72rhR1R8DBZPLU1NI98ra2wSkYaHxqEjFY0IYuKCMDzlg87XPyaeUMNDdWPjkDU2Y4hPCMJwNdBsH+GExlr/fTWO9n9i69t071hs4Bfgj0EfrjFlPn0tLyIiIiJyc1AScUJYSLzr6zy+NYIzz/wNLxYOHtJmevrX/bLahl5uk/b8A1zYMZ+cpWtYFLOEcGp592TZ8B2NbcGEhvhjOjro6nXj6evAXtuBvbaMzujFPHHHbJITrZxoH1+PxuztwmGauOxllJyrm+QOnYEtNIZQ2mjtHGn4n4WQwDAMs4/u3iHrnFmTSAy34OmppfFyMsAgODAUAw/djp7BsdtSSAqz4Om4SOMI/f/LIxi7ho5gvJ74vcINDsHfwGu0kYF/QACYLpxOZS195Wltos1jEB+fSIBROmQUl5eQHNJTrLgv7uGlt4q8NjPwZ/bWj7E6ZQFzQt7EPuICdxPNQmh4OBazA3vTkI0/jECCQq7WDE9V+zD2+ty/NqCHrsaGUZbPNAiPisTAQVfHkFeV3xxmJVvx2CuovXTtLbPY/MWvsSHyOH/45s8oHhSiH7EJcVg8dlqah8c2tnjACE0gJhg8VbW0+HrLLbHExtrAWT9yYg8LUQnx2OijpWHoxjvxxMZaMdtqab48UtLAz98PwzCw+fkNOpItZT0LUyx4GutpGeFWjLn++8jn9t/H+mY6eukzISw4GCt41V8rgcEBGGYrjond08o3RhAx8ZEYnovYW8eQ3Pa1vIiIiIjITcJy7SJybR5aqqpw2MKZf9tWErwHidgSWbZpKSF0UVNRN3z6ZFceeQUdGClb2LwoCrPmCAW1wzsllln38smvf4fPPLyEIO9pZUYg4ZEhGKYDx0jT+cw+nE4wAsII8Rv+58tnUHOeql4LCUvXkxLg9QSWKHIf/iqf/NzHWRw5EfOZDUKXPM5f/f2/8IW//yYPLo4YoYxJn8sBRgBxUXFcWRovgMSMzWT5e2i+eJpG7/04nL2YWImLTubyaRohzM65jTSbk9qLZ0ccaWgJjCDEMHH0jTWFOJb4vUrPWc3iOK8kUVAO87PDMFw11DfdAJ3PMdYfrwfQ53CAEUxY+ASPlgLMlvNU2k38MpaTFXr1+uifPp9ZNg+NZ/aSn3+cs5f/O8yx09V4bBlkZgRMeHwj89Da3IzHiCYtJ8XrmxuDgFm3szx9lMUfJ7t98LE+WyKiCDWgt7tr1HKOnl4giMQ5yVfO1wgkZcu9LAh103DiCHWXT8OB02XDFpRFTlaY10YVFkLnPcQdq6Lw1B/hTPXwbwHGGo8Rm0S0YdLRWM9os55HZI0nNtqCp6WOlhEHIlqJjo/D4mkcNgXZCE3sT1421nqt52jSXVNNu8dKym0f5rZFGcTFz2LOsgd55KE1hBrgaa5jpHzlWOu/r3xt/32tb2ZzCRc7TPyyN7E49sorwBq3geXZAZjtJVQPW/ASfG5PfG6vBoQuZn66H6b9PJWjDmkdZ3kRERERkZuERiJOkL6il3mrIJf7cx/hU19bRcn5SjrNEOIyFzIryo/uc79iX+FIiapeSo8eo2357USGuqh65ygj5ZY8Vcc407CVjUsf55PBi7lQ24ELP0KScpmfHYG75iXOjDTd2FNDSVEz6zes4J7P/CVZNV39iUzTQdX+33HqUkKi5xT7dp8j44G7+ehXMikqLKfDE0x05hKykkLoyt9HedtEDHuxkpizkHCrAUQzd94srPltQ0ZWmbTV5VMzN5nUuR/jg5HnqekxCQ7PYE5kKM6Wt9lTWu+VkDXpqs+jIjuNjLQP8f7Qc1zshtCobOaEB9Hb+BrvVI68SYGnx06HaSE67X3sDL5I/4xnE6f9CPur6kdYM28s8V/RV+Nm/qe/TlpRIS2ucJLmLyUtyqTl4JsUXscoOEvSRu7amMmlvVn84pKwYCFu+aPcN2tgCJO7jjOv7KbseoYrjbX+XOamriCPlk13sPD9f03gojI6L10cdznHnt/LCDmwsXOXkXesitXbF7JpWw5FL5wbISlkIzU7mwCzlYoLQ0dVeWgpKaLVnMPsrHSs+YVXvXcTx0PD0Te5sP7jZN/xZT6VfJQLdb34x2SSNRcaLzpgztUeO8ntg4/12WNvot20ELfxU3wg+tK9NXGW72H3kaqB14uHltOHqNiWRvq2L/PkrHyqWk1CUhaQmRqBs/zPvLS3atCyDgWHzrB+9hKWfeIfSCoqoKbNTWBcNpkZcfj3nuft371G7UjN25jiMQiOSyDE4qH8ahujeAvMZu3OdcRdyu36J5Hmb2AEz2fDIzH9E6pNFzUHf8vxajdYYoiN9QdXA81DEkpG3EDysqGOXq+K6K54ndcPzuN96xew+eO5bDZNnC0n2XOgiKTUtbQ31jPimNAx1f9x8LH997m+uYo58Ho+8x5dwj1f+DuyCs7TZsQyJ3cBcQFtFP55NxUjDqL3sT3xub0CjCDSt93D3AA3te8coOZaDYLP5S18+HY/tgeZvHGwj2ebr1FeRERERGQGqdv39KCflUScKJ5G8n75z7St28m6VYuYvWQDAUYfXU2l5L2ym33vnuFqs55c5Sc4376FVSHnOZ3XNPJUMlcp7/zkBzju2cGSnJWszPbHarrp62zg4tHfs+/Vt6gdsRPWR/mrP+Ilvw+xafEiFqfY+hfIN7uxFvzBq1PlonH/D3m67R62bF5DxupMAg0HnQ1lnHrpdfbtL+R6l1Pr56bq6B7Ks+8ihXKOHC0ZMWFhdh3h1SOwPmcV6dG5LDBcdHddpPjcixwtP0/bkAeZvXm8ccTK+nlryYxeRG6Mi+7OagoLD3K0vISOq1x7T+t7vF0UzZaMLOakxGFgAB6aeo9cV/yX2d9l19453LljEyvjQzA7azn31gvsfuPsdXX+jahsFq9ex9ANs8PS17Ds0iYd7iLq3tpNWc+wh/tgrPXnClfZ8/z2N3D3nWtJX7YBm2UgSFcgJS9cZxIRDw37f8eRpV9i3foneLTjxzy/p5gu72NaUkmfGw69hykfIXHmuXiOiq67WDJ3PgmWQmqmYCCRaT/A8z822brjLhZkbWLdPAdtF09z/FfP07Ty78m6ahJxstsH3+qzp+o1Xnw1nh2bFzF3eTKG0f96qW/dM/h8m/bwh5/Atnu2kpOxmqWWPrqayjnz6i9599187IMyZCZtR3/Mzxz3sOW21aRlrmKpzU1vay0Vh37HkT3vUGofeZmGscVjITohHounjebGa+9wbolbxIo1G4kZOk4/MptFq7MHnriO7sOXpmMnEBs7MFJx6E7Ll5KX9UO+kDDbKH7+n/j+/nSS40IwO+uoqW7Eb+2X2YaHsobGqyQ7x1D/x8XH9t/n+uah9eiP+Xn33Wzduo6MpZvIpIfW6iPsefvPHChsvuoUat/aEx/bKyOE1C1P8r71CXjqdvPGuxdHTzL7Wh4wAgxSA8F0m5xvu0ZhEREREZEZzsjNzZ3yhdkW3X83p3e9NtVPO2MZCTv41JcfJLb4GX749H6mZJk2mVRG4k6efOoBok79J//6m7wpGO12a7FEr+K+Jz/Bklgb3TUnOPn2C7yTV3dTXme1D7cKGxkPf4vH1vRx6D//D29UXL0230r1f3LYiFm0k9u2bmLBrHA8jQfZ9dNfUHDVqcm+lvd6ZKyNf1trJdTu4msH3DTp9SsiIiIiNzCtiTjtLCQsXU2ipYeSE6eUIBAZA0/LUV743rd4fm8BvbErWLMiHV+WQLtxqH24VVhj17N6UQTYT1M84tTzK26d+j9Z/ElZtZ2FCQ5K9z7N09//+TUSgr6WvyIq3CDUgKYWc4p2gxcRERERmTyazjzdrOksWpaE0X2UM4Wd0x2NyI2jt5rTL32f069HkhgLfdd+xI1H7cPNyS+DVfdvJNHaPzXXGhhPanYW0bYGTvzu5ausDzjErVD/J42Dsle/xXebqulwjiWz52v5K1LCDaymSYndo5GiIiIiInLDUxJxmtnS17Ig2qDr2GEujHWDYBG5wtlKXe10BzE51D7cnIyY+SxbvYlEK2CauB1tNJXv5ZU3d3G8vMO3g93E9X/yuOmorZrE8gMMg1nhBpgeilt9f7iIiIiIyEyjNRFFRERERERERERkVFoTUUREREREREREREalJKKIiIiIiIiIiIiMSklEERERERERERERGZWSiCIiIiIiIiIiIjIqY/ny5VO+scpQQXNSfCrfU3FxkiIRERERERERERGRoTQSUUREREREREREREalJKKIiIiIiIiIiIiMSklEERERERERERERGZWSiCIiIiIiIiIiIjIqJRFFRERERERERERkVEoiioiIiIiIiIiIyKhs0x3AJUaQk/mzXdj6LDQ2+FPbZUx3SCIiIiIiIiIiIsIMSiJaU9r4xlftpFjAdFk5fziGf342ghLHdEcmIiIiIiIiIiJya5uR05kNm5vs9Y188/5e/KY7GBERERERERERkVvcjEkiui7E8oEnsrjrbxN5vQkwTJLn9ZA4YyIUERERERERERG5Nc24FF13fTAna/vXQzR7LPSY0xyQiIiIiIiIiIjILW7GJRExXCRF9/+zu9lGm5KIIiIiIiIiIiIi02rmJRGtLpKiTcCgvskP93THIyIiIiIiIiIicoubcUlES6iT2IHdVNo7LGggooiIiIiIiIiIyPSyTXcAQ3m6/Klog+UxJrmbW7i/NZTK3v41El1t/pyptU5zhCIiIiIiIiIiIrcWY/ny5dM+2C9oTsrgn1M6+NQHm3lwgZNA48rv299L5oH/CaG94uIURygiIiIiIiIiInLrmnHTmcEkcW4XG+Y6CTCuXVpEREREREREREQm14ybzmyEdPLkBzqYFQCNRxN46udhlPcomygiIiIiIiIiIjJdZt5IRKuHIBuAQUVhMBVKIIqIiIiIiIiIiEyrGZdENLv9qO/p/3dstHvmBSgiIiIiIiIiInKLmXk5Oo+N2mYDMImPc+I33fGIiIiIiIiIiIjc4mZeEtG00tTR/0+/aCfRms0sIiIiIiIiIiIyrWbMxipGcB9LMpxEJXbxcJbZ/0vTwD29YYmIiIiIiIiIiNzyZkwS0Zrczt98yU7KpbGRppWj74XSaE5rWCIiIiIiIiIiIre8GZNEvMTjtNBUE8Set2L42Xs2PNMdkIiIiIiIiIiIyC1uxiQRXRdi+cATsdMdhoiIiIiIiIiIiAwx8zZWERERERERERERkRlFSUQREREREREREREZlZKIIiIiIiIiIiIiMiolEUVERERERERERGRUSiKKiIiIiIiIiIjIqJREFBERERERERERkVHZHA7HdMeAo7h0ukMQERERERERERGRq9BIRBERERERERERERmVkogiIiIiIiIiIiIyKiURRUREREREREREZFRKIoqIiIiIiIiIiMiolEQUERERERERERGRUSmJKCIiIiIiIiIiIqNSElFERERERERERERGpSSiiIiIiIiIiIiIjEpJRBERERERERERERmVkogiIiIiIiIiIiIyKiURRUREREREREREZFRKIoqIiIiIiIiIiMiolEQUERERERERERGRUSmJKCIiIiIiIiIiIqNSElFERERERERERERGpSSiiIiIiIiIiIiIjEpJRBERERERERERERmVkogiIiIiIiIiIiIyqv8HR9+1lKANYfkAAAAASUVORK5CYII=;" vertex="1" parent="1">
          <mxGeometry x="70" y="180" width="954.5" height="170" as="geometry" />
        </mxCell>
      </root>
    </mxGraphModel>
  </diagram>
</mxfile>
